<svg width="11" height="9" viewBox="0 0 11 9" fill="none" xmlns="http://www.w3.org/2000/svg">
<path d="M5.76301 0.265375C5.40412 0.617998 5.40412 1.18651 5.76301 1.53914L7.85781 3.59731L0.915557 3.59731C0.410169 3.59731 -2.18544e-07 4.0003 -1.96839e-07 4.49686C-1.75134e-07 4.99341 0.410169 5.3964 0.915557 5.3964L7.85781 5.3964L5.76301 7.46177C5.41877 7.8 5.41877 8.39011 5.76301 8.73553C6.12191 9.08816 6.70054 9.08816 7.05944 8.73553L10.7217 5.13733L10.7876 5.05817C10.8315 5.0078 10.8828 4.93584 10.9268 4.84228C10.9707 4.73434 11 4.612 11 4.49685L10.9927 4.41769C10.9854 4.32414 10.9634 4.23778 10.9268 4.15143C10.8828 4.03629 10.8096 3.94273 10.729 3.85638L7.06677 0.258178C6.70054 -0.0872491 6.11459 -0.0872491 5.76301 0.265375Z" fill="#99A0B6"/>
</svg>
