<svg width="11" height="9" viewBox="0 0 11 9" fill="none" xmlns="http://www.w3.org/2000/svg">
<path d="M5.23699 8.73463C5.59588 8.382 5.59588 7.81349 5.23699 7.46086L3.14219 5.40269L10.0844 5.4027C10.5898 5.4027 11 4.9997 11 4.50315C11 4.00659 10.5898 3.6036 10.0844 3.6036L3.14219 3.6036L5.23699 1.53823C5.58123 1.2 5.58123 0.609894 5.23699 0.264467C4.87809 -0.0881561 4.29946 -0.0881562 3.94056 0.264467L0.278331 3.86267L0.21241 3.94183C0.168463 3.9922 0.117191 4.06416 0.0732449 4.15772C0.0292976 4.26566 -1.91806e-07 4.388 -1.96839e-07 4.50315L0.00732497 4.58231C0.0146492 4.67586 0.0366228 4.76222 0.0732448 4.84857C0.117191 4.96371 0.190437 5.05727 0.271005 5.14362L3.93323 8.74182C4.29946 9.08725 4.88541 9.08725 5.23699 8.73463Z" fill="#99A0B6"/>
</svg>
