<svg width="130" height="35" viewBox="0 0 130 35" fill="none" xmlns="http://www.w3.org/2000/svg">
<path d="M48.7732 7.70312V14.0573C49.3074 13.7762 49.8416 13.5512 50.4321 13.3825C51.0225 13.2138 51.5286 13.1295 52.0066 13.1295C53.9184 13.1295 55.4086 13.8043 56.4207 15.1257C57.4329 16.4472 57.9671 18.106 57.9671 20.0741C57.9671 22.0422 57.4329 23.7011 56.3926 25.0225C55.3523 26.3439 53.8903 27.0187 52.0066 27.0187C51.388 27.0187 50.7132 26.8781 49.9541 26.6532C49.195 26.4002 48.5202 26.0628 47.9298 25.6129L47.0582 26.7095H45.2869V7.98428L48.7732 7.70312ZM51.1068 24.0666C52.3158 24.0666 53.1593 23.6167 53.6373 22.7732C54.1152 21.9016 54.3683 21.03 54.3683 20.1303C54.3683 19.1182 54.1434 18.1903 53.7216 17.375C53.2999 16.5596 52.4283 16.166 51.1068 16.166C50.7413 16.166 50.3477 16.2222 49.926 16.3628C49.5324 16.5034 49.1387 16.6721 48.7732 16.9251V23.3355C49.1387 23.5605 49.5042 23.7292 49.926 23.8697C50.3196 23.9822 50.7132 24.0666 51.1068 24.0666Z" fill="white"/>
<path d="M65.8677 27.0467C63.8152 27.0186 62.1845 26.4001 61.0318 25.163C59.879 23.9259 59.2886 22.2389 59.2886 20.1583C59.2886 18.0778 59.9071 16.4189 61.1161 15.1818C62.3251 13.9447 63.9839 13.3262 66.0926 13.3262C68.2575 13.3262 69.9445 13.9728 71.1535 15.2662C72.3343 16.5595 72.9529 18.2464 72.9529 20.327C72.9529 22.4076 72.3062 24.0664 71.0129 25.2473C69.6914 26.4282 67.9764 27.0186 65.8677 27.0467ZM69.2978 20.2989C69.2978 19.0618 69.0167 18.0778 68.4825 17.3749C67.9483 16.672 67.161 16.3065 66.1488 16.3065C65.1367 16.3065 64.3213 16.6157 63.759 17.2624C63.1967 17.8809 62.8874 18.865 62.8874 20.1583C62.8874 21.4517 63.1404 22.4357 63.6184 23.0824C64.1245 23.7572 64.8836 24.0664 65.8958 24.0664C66.908 24.0664 67.7233 23.7572 68.3419 23.1667C68.9885 22.5482 69.2978 21.5922 69.2978 20.2989Z" fill="white"/>
<path d="M82.8778 26.4564C82.5966 26.6813 82.1749 26.8781 81.6407 27.0468C81.1065 27.1874 80.6285 27.2717 80.2349 27.2717C78.6323 27.2717 77.339 26.85 76.4111 26.0346C75.4833 25.2193 75.0335 24.0665 75.0335 22.5483V16.3628H73.2903V13.6918H75.0335V10.599L78.5198 9.98047V13.6918H80.8816L81.95 16.3909H78.4917V21.9297C78.4917 22.6045 78.6604 23.1668 78.9697 23.6167C79.279 24.0665 79.7569 24.2633 80.4036 24.2633C80.6285 24.2633 80.8816 24.2352 81.1065 24.179C81.3314 24.1228 81.5845 24.0384 81.8375 23.8978L82.8778 26.4564Z" fill="white"/>
<path d="M89.9067 27.0467C87.8543 27.0186 86.2236 26.4001 85.0708 25.163C83.9181 23.9259 83.3276 22.2389 83.3276 20.1583C83.3276 18.0778 83.9462 16.4189 85.1552 15.1818C86.3642 13.9447 88.023 13.3262 90.1317 13.3262C92.2966 13.3262 93.9836 13.9728 95.1925 15.2662C96.4015 16.5595 96.9919 18.2464 96.9919 20.327C96.9919 22.4076 96.3453 24.0664 95.052 25.2473C93.7305 26.4282 92.0154 27.0186 89.9067 27.0467ZM93.3369 20.2989C93.3369 19.0618 93.0557 18.0778 92.5215 17.3749C91.9873 16.672 91.2001 16.3065 90.1879 16.3065C89.1757 16.3065 88.3604 16.6157 87.7981 17.2624C87.2357 17.8809 86.9265 18.865 86.9265 20.1583C86.9265 21.4517 87.1795 22.4357 87.6575 23.0824C88.1636 23.7572 88.9227 24.0664 89.9349 24.0664C90.947 24.0664 91.7624 23.7572 92.3809 23.1667C93.0276 22.5482 93.3369 21.5922 93.3369 20.2989Z" fill="white"/>
<path d="M101.687 15.0701C102.278 14.4796 103.009 14.0017 103.908 13.6643C104.808 13.3269 105.595 13.1582 106.298 13.1582C108.07 13.1582 109.335 13.6924 110.094 14.7327C110.853 15.773 111.219 17.0382 111.219 18.5564V26.7382H107.704V18.697C107.704 17.8817 107.507 17.235 107.114 16.7851C106.72 16.3353 106.158 16.1385 105.399 16.1385C104.893 16.1385 104.358 16.2791 103.824 16.5321C103.29 16.7852 102.784 17.0944 102.334 17.4318V26.7382H98.8195V13.6643H100.647L101.687 15.0701Z" fill="white"/>
<path d="M115.267 7.87109C115.83 7.87109 116.308 8.0679 116.673 8.43341C117.067 8.79892 117.263 9.27689 117.263 9.8392C117.263 10.4015 117.067 10.8514 116.673 11.245C116.279 11.6105 115.801 11.8073 115.267 11.8073C114.733 11.8073 114.283 11.6105 113.89 11.245C113.524 10.8795 113.327 10.4015 113.327 9.8392C113.327 9.27689 113.524 8.82703 113.89 8.43341C114.255 8.03979 114.705 7.87109 115.267 7.87109ZM117.01 13.663V26.7368H113.496V13.663H117.01Z" fill="white"/>
<path d="M125.67 16.3065C124.686 16.3065 123.899 16.672 123.365 17.4311C122.802 18.1902 122.521 19.118 122.521 20.2146C122.521 21.3392 122.802 22.267 123.365 22.998C123.927 23.729 124.686 24.0664 125.67 24.0664C126.289 24.0664 126.823 23.9821 127.329 23.8415C127.835 23.7009 128.397 23.476 129.016 23.1948L130 25.7253C129.381 26.2032 128.65 26.5406 127.779 26.7374C126.907 26.9624 126.204 27.0467 125.642 27.0467C123.533 27.0467 121.875 26.4282 120.694 25.1911C119.513 23.954 118.922 22.2951 118.922 20.2146C118.922 18.134 119.513 16.447 120.694 15.2099C121.875 13.9447 123.533 13.3262 125.642 13.3262C126.204 13.3262 126.907 13.4386 127.751 13.6636C128.594 13.8885 129.353 14.2259 130 14.6757L129.016 17.178C128.397 16.8969 127.835 16.672 127.329 16.5314C126.851 16.3627 126.289 16.3065 125.67 16.3065Z" fill="white"/>
<path d="M21.6978 18.5C21.501 18.8655 21.3042 19.231 21.1074 19.5684C20.9106 19.9339 20.6856 20.2713 20.4888 20.6368C21.1636 20.5525 21.8103 20.44 22.4007 20.2994C22.2039 19.7371 21.979 19.1185 21.6978 18.5Z" fill="white"/>
<path d="M20.4888 14.3672C20.7138 14.7046 20.9106 15.042 21.1074 15.4075C21.3042 15.7449 21.501 16.0823 21.6978 16.4478C21.9509 15.8292 22.1758 15.2388 22.3445 14.6765C21.754 14.5359 21.1355 14.4234 20.4888 14.3672Z" fill="white"/>
<path d="M12.2228 13.1859C12.279 13.4108 12.3071 13.6076 12.3633 13.8326C13.2068 13.6358 14.1346 13.4952 15.1187 13.4108C15.681 12.5955 16.2715 11.8645 16.8619 11.2178C16.7494 11.1053 16.6651 11.021 16.5526 10.9366C14.95 9.53084 13.4317 8.94041 12.757 9.36214C12.1103 9.72765 11.8291 11.2178 12.2228 13.1859Z" fill="white"/>
<path d="M14.472 14.3398C13.8253 14.4242 13.2068 14.5367 12.6163 14.6772C12.785 15.2677 13.01 15.8581 13.263 16.4485C13.4317 16.083 13.6285 15.7456 13.8534 15.3801C14.0502 15.0427 14.2471 14.7053 14.472 14.3398Z" fill="white"/>
<path d="M14.5001 20.638C14.2752 20.3006 14.0503 19.9351 13.8535 19.5977C13.6285 19.2322 13.4598 18.8948 13.263 18.5293C13.01 19.1478 12.7851 19.7664 12.5883 20.3287C13.1787 20.4693 13.8254 20.5818 14.5001 20.638Z" fill="white"/>
<path d="M15.6247 20.749C16.2152 20.7772 16.8337 20.8053 17.4804 20.8053C18.127 20.8053 18.7456 20.7772 19.3641 20.749C19.7015 20.2148 20.0389 19.6806 20.3482 19.1464C20.6575 18.6122 20.9667 18.0499 21.2198 17.4876C20.9386 16.9253 20.6575 16.363 20.3201 15.8288C20.0389 15.2946 19.7015 14.7604 19.3641 14.2543C18.7456 14.198 18.0989 14.1699 17.4804 14.1699C16.8337 14.1699 16.2152 14.198 15.5966 14.2543C15.2592 14.7604 14.9218 15.2946 14.6126 15.8288C14.3033 16.363 13.994 16.9253 13.741 17.4876C14.0221 18.0499 14.3033 18.6122 14.6126 19.1464C14.9218 19.6806 15.2592 20.2148 15.6247 20.749ZM17.4804 15.6319C18.4925 15.6319 19.3079 16.4473 19.3079 17.4595C19.3079 18.4716 18.4925 19.3151 17.4804 19.3151C16.4682 19.3151 15.6247 18.4716 15.6247 17.4595C15.6247 16.4473 16.4682 15.6319 17.4804 15.6319Z" fill="white"/>
<path d="M22.5975 13.8323C22.6256 13.6918 22.6537 13.5512 22.6818 13.4106C23.1036 11.3019 22.8505 9.69931 22.1476 9.30569C21.501 8.94018 20.0952 9.47438 18.5769 10.7958C18.4082 10.9364 18.2676 11.077 18.0989 11.2176C18.6894 11.8642 19.2798 12.5952 19.8421 13.3825C20.7981 13.495 21.7259 13.6355 22.5975 13.8323Z" fill="white"/>
<path d="M18.6894 13.3273C18.2958 12.7931 17.9021 12.287 17.4804 11.8652C17.0587 12.3151 16.665 12.7931 16.2714 13.3273C17.0868 13.271 17.874 13.271 18.6894 13.3273Z" fill="white"/>
<path d="M22.6256 21.1426C21.7821 21.3394 20.8262 21.48 19.8421 21.5643C19.2798 22.3797 18.6894 23.1107 18.1271 23.7574C18.2958 23.926 18.4645 24.0947 18.6332 24.2353C20.1233 25.5287 21.5291 26.0066 22.1758 25.6411C22.485 25.4724 22.7381 25.0226 22.8505 24.3478C22.9911 23.6168 22.963 22.689 22.7381 21.6487C22.71 21.48 22.6818 21.3113 22.6256 21.1426Z" fill="white"/>
<path d="M11.7448 14.9023C11.5198 14.9586 11.2668 15.0429 11.0419 15.0992C9.18622 15.7739 8.06158 16.7299 8.06158 17.4609C8.06158 17.8264 8.31463 18.2481 8.82071 18.698C9.41115 19.176 10.2265 19.6258 11.2387 19.9632C11.4074 20.0194 11.5761 20.0757 11.7448 20.1319C11.9978 19.2884 12.3352 18.3887 12.7569 17.489C12.3352 16.5893 11.9978 15.7177 11.7448 14.9023Z" fill="white"/>
<path d="M23.8065 15.0992C23.6097 15.0148 23.4128 14.9586 23.216 14.9023C22.963 15.7177 22.6256 16.5893 22.2039 17.4609C22.6256 18.3606 22.9911 19.2322 23.2441 20.0757C23.3566 20.0475 23.4691 20.0194 23.5815 19.9632C25.634 19.2884 26.8992 18.2762 26.8992 17.4609C26.8992 16.7299 25.7183 15.7458 23.8065 15.0992Z" fill="white"/>
<path d="M12.3633 21.1992C12.3071 21.4241 12.2508 21.6491 12.1946 21.874C11.8291 23.814 12.1103 25.2479 12.7569 25.6415C13.0662 25.8102 13.5723 25.8102 14.1908 25.5853C14.8937 25.3323 15.7091 24.8262 16.4963 24.1233C16.6369 24.0108 16.7775 23.8983 16.89 23.7578C16.2995 23.1392 15.7091 22.3801 15.1187 21.5928C14.1346 21.5085 13.2068 21.3679 12.3633 21.1992Z" fill="white"/>
<path d="M33.9844 11.4713C31.5665 4.611 25.0436 0 17.7616 0C17.7616 0 17.7616 0 17.7335 0C11.5198 0 5.75609 3.3739 2.71958 8.82838C-0.204469 14.086 -0.148237 20.4965 2.83204 25.6979L0.0766896 33.2329C-0.0920056 33.7109 0.0204579 34.217 0.385964 34.5825C0.639007 34.8356 0.948281 34.948 1.28567 34.948C1.42625 34.948 1.59495 34.9199 1.73553 34.8637L9.27058 32.1083C15.3717 35.5947 23.0474 35.0042 28.5581 30.5619C34.2094 26.0353 36.4024 18.3315 33.9844 11.4713ZM23.8627 20.8057C23.7502 20.8339 23.6097 20.8901 23.4972 20.9182C23.5534 21.115 23.5816 21.2837 23.6097 21.4805C24.0876 23.8423 23.7221 25.7541 22.6256 26.4008C21.5572 27.0193 19.8421 26.4008 18.0708 24.9107C17.874 24.742 17.7053 24.5733 17.5085 24.4046C17.3679 24.5452 17.2274 24.6857 17.0868 24.7982C15.2874 26.3727 13.4317 27.0193 12.3352 26.4008C11.2387 25.7822 10.9013 23.9828 11.3512 21.7054C11.4074 21.4524 11.4636 21.2275 11.5198 20.9744C11.323 20.9182 11.1262 20.862 10.9575 20.8057C8.68015 20.0185 7.19 18.7533 7.19 17.46C7.19 16.2229 8.56768 15.042 10.7607 14.2829C10.9856 14.1985 11.2668 14.1142 11.5198 14.0298C11.4636 13.8049 11.4074 13.58 11.3512 13.355C10.9013 11.0495 11.2387 9.222 12.3071 8.57534C13.4317 7.92867 15.2874 8.63157 17.143 10.2623C17.2555 10.4029 17.3679 10.4872 17.4804 10.5997C17.6491 10.431 17.8178 10.2904 17.9865 10.1217C19.7578 8.57534 21.5291 7.92867 22.5975 8.54722C23.7221 9.19389 24.0314 11.162 23.5534 13.58C23.5253 13.7487 23.4691 13.9174 23.441 14.0579C23.6659 14.1142 23.8908 14.1985 24.1158 14.2547C26.3369 15.0139 27.7708 16.2229 27.7708 17.46C27.7708 18.7533 26.2244 20.0185 23.8627 20.8057Z" fill="white"/>
<path d="M17.4804 21.6766C17.0587 21.6766 16.665 21.6766 16.2714 21.6484C16.665 22.1826 17.0868 22.6887 17.5085 23.1386C17.9021 22.6887 18.3239 22.1826 18.7175 21.6484C18.2958 21.6766 17.9021 21.6766 17.4804 21.6766Z" fill="white"/>
</svg>
