<svg width="86" height="15" viewBox="0 0 86 15" fill="none" xmlns="http://www.w3.org/2000/svg">
<path d="M9.77539 13.8945V14H7.94727L5.16992 8.81445H2.19043V14H0.485352V1.20312H4.72168C6.16895 1.20312 7.2793 1.53418 8.05273 2.19629C8.82617 2.85254 9.21289 3.80176 9.21289 5.04395C9.21289 5.83496 8.99609 6.5293 8.5625 7.12695C8.13477 7.71875 7.53711 8.16406 6.76953 8.46289L9.77539 13.8945ZM4.76562 7.44336C5.35156 7.44336 5.84961 7.33789 6.25977 7.12695C6.66992 6.91602 6.97754 6.62891 7.18262 6.26562C7.39355 5.90234 7.49902 5.49512 7.49902 5.04395C7.49902 4.27051 7.27051 3.66699 6.81348 3.2334C6.35645 2.7998 5.65918 2.58301 4.72168 2.58301H2.19043V7.44336H4.76562ZM18.9863 9.69336H12.5527C12.5703 10.2852 12.6934 10.8213 12.9219 11.3018C13.1504 11.7822 13.4727 12.1631 13.8887 12.4443C14.3105 12.7197 14.8027 12.8574 15.3652 12.8574C15.916 12.8574 16.3906 12.7461 16.7891 12.5234C17.1934 12.3008 17.5537 11.9814 17.8701 11.5654L18.8633 12.3389C18.5117 12.8779 18.043 13.3203 17.457 13.666C16.8711 14.0059 16.1445 14.1758 15.2773 14.1758C14.4102 14.1758 13.6455 13.9795 12.9834 13.5869C12.3213 13.1943 11.8086 12.6494 11.4453 11.9521C11.0879 11.2549 10.9092 10.4639 10.9092 9.5791V9.20117C10.9092 8.21094 11.1025 7.34668 11.4893 6.6084C11.876 5.86426 12.3857 5.2959 13.0186 4.90332C13.6572 4.51074 14.3398 4.31445 15.0664 4.31445C15.9512 4.31445 16.6836 4.51367 17.2637 4.91211C17.8496 5.30469 18.2832 5.84961 18.5645 6.54688C18.8457 7.24414 18.9863 8.0498 18.9863 8.96387V9.69336ZM17.3428 8.25195C17.2959 7.50781 17.0938 6.88672 16.7363 6.38867C16.3848 5.88477 15.8281 5.63281 15.0664 5.63281C14.4102 5.63281 13.8623 5.87305 13.4229 6.35352C12.9893 6.82812 12.7168 7.50195 12.6055 8.375H17.3428V8.25195ZM28.1357 11.9258C28.1357 12.2598 28.165 12.6055 28.2236 12.9629C28.2822 13.3145 28.3643 13.6133 28.4697 13.8594V14H26.7559C26.6562 13.7715 26.5801 13.4404 26.5273 13.0068C26.1992 13.3584 25.8037 13.6426 25.3408 13.8594C24.8838 14.0703 24.3799 14.1758 23.8291 14.1758C23.1963 14.1758 22.6338 14.0527 22.1416 13.8066C21.6553 13.5547 21.2773 13.2148 21.0078 12.7871C20.7441 12.3594 20.6123 11.8848 20.6123 11.3633C20.6123 10.6895 20.7852 10.1182 21.1309 9.64941C21.4824 9.18066 21.9775 8.8291 22.6162 8.59473C23.2607 8.35449 24.0195 8.23438 24.8926 8.23438H26.4922V7.47852C26.4922 6.89844 26.3193 6.44434 25.9736 6.11621C25.6338 5.78223 25.1416 5.61523 24.4971 5.61523C24.1045 5.61523 23.7529 5.68555 23.4424 5.82617C23.1318 5.96094 22.8887 6.14551 22.7129 6.37988C22.543 6.6084 22.458 6.85742 22.458 7.12695H20.8145C20.8145 6.66406 20.9727 6.21582 21.2891 5.78223C21.6055 5.34863 22.0508 4.99707 22.625 4.72754C23.1992 4.45215 23.8555 4.31445 24.5938 4.31445C25.2969 4.31445 25.9121 4.43457 26.4395 4.6748C26.9727 4.90918 27.3887 5.2666 27.6875 5.74707C27.9863 6.22168 28.1357 6.80469 28.1357 7.49609V11.9258ZM24.0664 12.7695C24.4414 12.7695 24.79 12.7051 25.1123 12.5762C25.4404 12.4414 25.7217 12.2656 25.9561 12.0488C26.1904 11.832 26.3691 11.5977 26.4922 11.3457V9.37695H25.1562C24.2188 9.37695 23.501 9.52637 23.0029 9.8252C22.5049 10.1182 22.2559 10.5547 22.2559 11.1348C22.2559 11.4453 22.3262 11.7236 22.4668 11.9697C22.6074 12.2158 22.8125 12.4121 23.082 12.5586C23.3516 12.6992 23.6797 12.7695 24.0664 12.7695ZM38.3311 0.5V14H36.8281L36.749 12.9893C36.1045 13.7803 35.2021 14.1758 34.042 14.1758C33.3096 14.1758 32.6592 13.9678 32.0908 13.5518C31.5225 13.1357 31.0801 12.5615 30.7637 11.8291C30.4531 11.0967 30.2979 10.2705 30.2979 9.35059V9.16602C30.2979 8.20508 30.4531 7.3584 30.7637 6.62598C31.0742 5.89355 31.5137 5.3252 32.082 4.9209C32.6504 4.5166 33.3096 4.31445 34.0596 4.31445C35.1787 4.31445 36.0547 4.68652 36.6875 5.43066V0.5H38.3311ZM34.4463 12.8047C35.46 12.8047 36.207 12.3447 36.6875 11.4248V7.02148C36.4648 6.60547 36.1689 6.27734 35.7998 6.03711C35.4365 5.79688 34.9912 5.67676 34.4639 5.67676C33.8955 5.67676 33.4209 5.83203 33.04 6.14258C32.665 6.44727 32.3867 6.86328 32.2051 7.39062C32.0293 7.91797 31.9414 8.50977 31.9414 9.16602V9.35059C31.9414 10.0068 32.0293 10.5957 32.2051 11.1172C32.3867 11.6328 32.665 12.043 33.04 12.3477C33.415 12.6523 33.8838 12.8047 34.4463 12.8047ZM55.4609 4.31445C56.5039 4.31445 57.2949 4.59277 57.834 5.14941C58.373 5.70605 58.6426 6.57324 58.6426 7.75098V14H56.999V7.7334C56.999 6.97754 56.8262 6.44727 56.4805 6.14258C56.1406 5.83203 55.6396 5.67676 54.9775 5.67676C54.5557 5.67676 54.1865 5.76758 53.8701 5.94922C53.5537 6.125 53.3047 6.36523 53.123 6.66992C52.9473 6.97461 52.8389 7.31738 52.7979 7.69824V14H51.1543V7.74219C51.1543 6.36523 50.4775 5.67676 49.124 5.67676C48.5791 5.67676 48.1279 5.79688 47.7705 6.03711C47.4131 6.27148 47.1406 6.59961 46.9531 7.02148V14H45.3096V4.49023H46.8652L46.918 5.51855C47.2461 5.13184 47.6445 4.83594 48.1133 4.63086C48.582 4.41992 49.1182 4.31445 49.7217 4.31445C50.3486 4.31445 50.8965 4.44043 51.3652 4.69238C51.8398 4.93848 52.1973 5.31641 52.4375 5.82617C52.7656 5.35742 53.1846 4.98828 53.6943 4.71875C54.21 4.44922 54.7988 4.31445 55.4609 4.31445ZM60.6816 9.14844C60.6816 8.22852 60.8574 7.40234 61.209 6.66992C61.5605 5.9375 62.0615 5.36328 62.7119 4.94727C63.3682 4.52539 64.1299 4.31445 64.9971 4.31445C65.876 4.31445 66.6436 4.52539 67.2998 4.94727C67.9561 5.36328 68.46 5.9375 68.8115 6.66992C69.1631 7.40234 69.3389 8.22852 69.3389 9.14844V9.35059C69.3389 10.2705 69.1631 11.0967 68.8115 11.8291C68.46 12.5557 67.9561 13.1299 67.2998 13.5518C66.6494 13.9678 65.8877 14.1758 65.0146 14.1758C64.1416 14.1758 63.377 13.9678 62.7207 13.5518C62.0703 13.1299 61.5664 12.5557 61.209 11.8291C60.8574 11.0967 60.6816 10.2705 60.6816 9.35059V9.14844ZM62.3252 9.35059C62.3252 9.99512 62.4248 10.584 62.624 11.1172C62.8291 11.6504 63.1338 12.0752 63.5381 12.3916C63.9424 12.7021 64.4346 12.8574 65.0146 12.8574C65.5889 12.8574 66.0781 12.7021 66.4824 12.3916C66.8867 12.0752 67.1885 11.6504 67.3877 11.1172C67.5928 10.584 67.6953 9.99512 67.6953 9.35059V9.14844C67.6953 8.50391 67.5928 7.91504 67.3877 7.38184C67.1826 6.84863 66.8779 6.42383 66.4736 6.10742C66.0693 5.79102 65.5771 5.63281 64.9971 5.63281C64.4229 5.63281 63.9336 5.79102 63.5293 6.10742C63.1309 6.42383 62.8291 6.84863 62.624 7.38184C62.4248 7.91504 62.3252 8.50391 62.3252 9.14844V9.35059ZM75.2715 4.31445C75.377 4.31445 75.5088 4.3291 75.667 4.3584C75.8252 4.38184 75.9336 4.4082 75.9922 4.4375V5.94043C75.7402 5.89355 75.4736 5.87012 75.1924 5.87012C74.6533 5.87012 74.2021 5.99023 73.8389 6.23047C73.4814 6.4707 73.2119 6.80762 73.0303 7.24121V14H71.3867V4.49023H72.9863L73.0215 5.57129C73.2676 5.17285 73.5781 4.86523 73.9531 4.64844C74.3281 4.42578 74.7676 4.31445 75.2715 4.31445ZM85.1504 9.69336H78.7168C78.7344 10.2852 78.8574 10.8213 79.0859 11.3018C79.3145 11.7822 79.6367 12.1631 80.0527 12.4443C80.4746 12.7197 80.9668 12.8574 81.5293 12.8574C82.0801 12.8574 82.5547 12.7461 82.9531 12.5234C83.3574 12.3008 83.7178 11.9814 84.0342 11.5654L85.0273 12.3389C84.6758 12.8779 84.207 13.3203 83.6211 13.666C83.0352 14.0059 82.3086 14.1758 81.4414 14.1758C80.5742 14.1758 79.8096 13.9795 79.1475 13.5869C78.4854 13.1943 77.9727 12.6494 77.6094 11.9521C77.252 11.2549 77.0732 10.4639 77.0732 9.5791V9.20117C77.0732 8.21094 77.2666 7.34668 77.6533 6.6084C78.04 5.86426 78.5498 5.2959 79.1826 4.90332C79.8213 4.51074 80.5039 4.31445 81.2305 4.31445C82.1152 4.31445 82.8477 4.51367 83.4277 4.91211C84.0137 5.30469 84.4473 5.84961 84.7285 6.54688C85.0098 7.24414 85.1504 8.0498 85.1504 8.96387V9.69336ZM83.5068 8.25195C83.46 7.50781 83.2578 6.88672 82.9004 6.38867C82.5488 5.88477 81.9922 5.63281 81.2305 5.63281C80.5742 5.63281 80.0264 5.87305 79.5869 6.35352C79.1533 6.82812 78.8809 7.50195 78.7695 8.375H83.5068V8.25195Z" fill="#FF547D"/>
</svg>
