<svg width="33" height="32" viewBox="0 0 33 32" fill="none" xmlns="http://www.w3.org/2000/svg">
<path d="M19.8677 16.9395C19.6875 17.2741 19.5073 17.6088 19.3271 17.9177C19.1469 18.2524 18.941 18.5613 18.7607 18.896C19.3786 18.8188 19.9707 18.7158 20.5113 18.5871C20.3311 18.0722 20.1252 17.5058 19.8677 16.9395Z" fill="white"/>
<path d="M18.7607 13.1543C18.9667 13.4632 19.1469 13.7722 19.3271 14.1068C19.5073 14.4158 19.6875 14.7247 19.8677 15.0594C20.0994 14.493 20.3054 13.9524 20.4599 13.4375C19.9192 13.3088 19.3529 13.2058 18.7607 13.1543Z" fill="white"/>
<path d="M11.1919 12.0728C11.2434 12.2787 11.2691 12.4589 11.3206 12.6649C12.0929 12.4847 12.9425 12.356 13.8435 12.2787C14.3584 11.5322 14.8991 10.8628 15.4397 10.2707C15.3367 10.1677 15.2595 10.0905 15.1565 10.0132C13.6891 8.72604 12.2989 8.18541 11.681 8.57158C11.0889 8.90625 10.8315 10.2707 11.1919 12.0728Z" fill="white"/>
<path d="M13.2514 13.1309C12.6592 13.2081 12.0929 13.3111 11.5522 13.4398C11.7067 13.9804 11.9127 14.521 12.1444 15.0617C12.2988 14.727 12.479 14.4181 12.685 14.0834C12.8652 13.7745 13.0454 13.4655 13.2514 13.1309Z" fill="white"/>
<path d="M13.277 18.8976C13.071 18.5887 12.8651 18.254 12.6849 17.9451C12.4789 17.6104 12.3244 17.3015 12.1442 16.9668C11.9125 17.5332 11.7066 18.0995 11.5264 18.6144C12.067 18.7431 12.6591 18.8461 13.277 18.8976Z" fill="white"/>
<path d="M14.3069 18.9987C14.8475 19.0245 15.4139 19.0502 16.006 19.0502C16.5981 19.0502 17.1645 19.0245 17.7309 18.9987C18.0398 18.5096 18.3487 18.0205 18.6319 17.5313C18.9151 17.0422 19.1983 16.5273 19.43 16.0124C19.1725 15.4975 18.9151 14.9827 18.6062 14.4935C18.3487 14.0044 18.0398 13.5152 17.7309 13.0518C17.1645 13.0004 16.5724 12.9746 16.006 12.9746C15.4139 12.9746 14.8475 13.0004 14.2811 13.0518C13.9722 13.5152 13.6633 14.0044 13.3801 14.4935C13.0969 14.9827 12.8137 15.4975 12.582 16.0124C12.8395 16.5273 13.0969 17.0422 13.3801 17.5313C13.6633 18.0205 13.9722 18.5096 14.3069 18.9987ZM16.006 14.3133C16.9328 14.3133 17.6794 15.0599 17.6794 15.9867C17.6794 16.9135 16.9328 17.6858 16.006 17.6858C15.0792 17.6858 14.3069 16.9135 14.3069 15.9867C14.3069 15.0599 15.0792 14.3133 16.006 14.3133Z" fill="white"/>
<path d="M20.6913 12.6656C20.7171 12.5369 20.7428 12.4082 20.7686 12.2795C21.1547 10.3487 20.923 8.88124 20.2794 8.52082C19.6873 8.18615 18.4001 8.67528 17.0099 9.88526C16.8555 10.014 16.7267 10.1427 16.5723 10.2714C17.1129 10.8635 17.6535 11.5329 18.1684 12.2537C19.0437 12.3567 19.8933 12.4854 20.6913 12.6656Z" fill="white"/>
<path d="M17.1129 12.2039C16.7525 11.7148 16.3921 11.2514 16.0059 10.8652C15.6198 11.2771 15.2593 11.7148 14.8989 12.2039C15.6455 12.1524 16.3663 12.1524 17.1129 12.2039Z" fill="white"/>
<path d="M20.7172 19.3594C19.9449 19.5396 19.0696 19.6683 18.1685 19.7455C17.6537 20.4921 17.113 21.1615 16.5981 21.7536C16.7526 21.908 16.9071 22.0625 17.0615 22.1912C18.426 23.3755 19.7132 23.8131 20.3053 23.4784C20.5885 23.324 20.8202 22.9121 20.9232 22.2942C21.0519 21.6249 21.0261 20.7753 20.8202 19.8228C20.7944 19.6683 20.7687 19.5138 20.7172 19.3594Z" fill="white"/>
<path d="M10.7538 13.6445C10.5479 13.696 10.3162 13.7733 10.1102 13.8247C8.41111 14.4426 7.38135 15.3179 7.38135 15.9873C7.38135 16.3219 7.61305 16.7081 8.07644 17.12C8.61707 17.5576 9.36365 17.9696 10.2904 18.2785C10.4449 18.33 10.5994 18.3815 10.7538 18.4329C10.9855 17.6606 11.2945 16.8368 11.6806 16.013C11.2945 15.1892 10.9855 14.3911 10.7538 13.6445Z" fill="white"/>
<path d="M21.7985 13.8247C21.6183 13.7475 21.4381 13.696 21.2578 13.6445C21.0261 14.3911 20.7172 15.1892 20.3311 15.9873C20.7172 16.8111 21.0519 17.6091 21.2836 18.3815C21.3866 18.3557 21.4895 18.33 21.5925 18.2785C23.4718 17.6606 24.6303 16.7338 24.6303 15.9873C24.6303 15.3179 23.5491 14.4169 21.7985 13.8247Z" fill="white"/>
<path d="M11.3203 19.4102C11.2689 19.6161 11.2174 19.8221 11.1659 20.028C10.8312 21.8044 11.0886 23.1173 11.6808 23.4777C11.9639 23.6322 12.4273 23.6322 12.9937 23.4262C13.6373 23.1945 14.3839 22.7312 15.1047 22.0875C15.2335 21.9846 15.3622 21.8816 15.4652 21.7529C14.9245 21.1865 14.3839 20.4914 13.8433 19.7706C12.9422 19.6933 12.0927 19.5646 11.3203 19.4102Z" fill="white"/>
<path d="M31.1177 10.5036C28.9037 4.22204 22.931 0 16.2633 0C16.2633 0 16.2633 0 16.2376 0C10.5481 0 5.27054 3.0893 2.49017 8.08367C-0.187221 12.8978 -0.135733 18.7675 2.59315 23.5302L0.0702205 30.4296C-0.0842445 30.8673 0.0187321 31.3307 0.353406 31.6653C0.585104 31.897 0.86829 32 1.17722 32C1.30594 32 1.46041 31.9743 1.58913 31.9228L8.48856 29.3998C14.075 32.5921 21.1032 32.0515 26.1491 27.9839C31.3236 23.8391 33.3317 16.7852 31.1177 10.5036ZM21.8498 19.0507C21.7468 19.0764 21.6181 19.1279 21.5151 19.1537C21.5666 19.3339 21.5923 19.4883 21.6181 19.6685C22.0557 21.8311 21.7211 23.5817 20.717 24.1738C19.7388 24.7401 18.1684 24.1738 16.5465 22.8093C16.3663 22.6549 16.2118 22.5004 16.0316 22.3459C15.9029 22.4747 15.7742 22.6034 15.6454 22.7064C13.9978 24.148 12.2987 24.7401 11.2947 24.1738C10.2907 23.6074 9.98173 21.9598 10.3936 19.8745C10.4451 19.6428 10.4966 19.4368 10.5481 19.2051C10.3679 19.1537 10.1877 19.1022 10.0332 19.0507C7.94794 18.3298 6.5835 17.1714 6.5835 15.9871C6.5835 14.8544 7.84496 13.7731 9.853 13.078C10.059 13.0008 10.3164 12.9236 10.5481 12.8463C10.4966 12.6404 10.4451 12.4344 10.3936 12.2285C9.98173 10.1175 10.2907 8.44409 11.2689 7.85197C12.2987 7.25985 13.9978 7.90346 15.6969 9.39662C15.7999 9.52534 15.9029 9.60257 16.0059 9.70555C16.1603 9.55109 16.3148 9.42236 16.4693 9.2679C18.0911 7.85197 19.713 7.25985 20.6913 7.82623C21.7211 8.41834 22.0043 10.2204 21.5666 12.4344C21.5409 12.5889 21.4894 12.7434 21.4636 12.8721C21.6696 12.9236 21.8755 13.0008 22.0815 13.0523C24.1153 13.7474 25.4282 14.8544 25.4282 15.9871C25.4282 17.1714 24.0123 18.3298 21.8498 19.0507Z" fill="white"/>
<path d="M16.0059 19.848C15.6198 19.848 15.2593 19.848 14.8989 19.8223C15.2593 20.3114 15.6455 20.7748 16.0317 21.1867C16.3921 20.7748 16.7782 20.3114 17.1387 19.8223C16.7525 19.848 16.3921 19.848 16.0059 19.848Z" fill="white"/>
</svg>
