<svg width="14" height="14" viewBox="0 0 14 14" fill="none" xmlns="http://www.w3.org/2000/svg">
<path d="M6.41663 4.08331C6.41663 3.76114 6.67779 3.49998 6.99996 3.49998H9.91661C10.2388 3.49998 10.4999 3.76114 10.4999 4.08331V6.99996C10.4999 7.32212 10.2388 7.58329 9.91661 7.58329C9.59444 7.58329 9.33328 7.32212 9.33328 6.99996V5.49159L6.24577 8.57909C6.01797 8.8069 5.64863 8.8069 5.42082 8.57909C5.19302 8.35129 5.19302 7.98194 5.42082 7.75414L8.50832 4.66664H6.99996C6.67779 4.66664 6.41663 4.40547 6.41663 4.08331ZM2.48886 1.97443C2.88066 0.825971 3.96886 0 5.24997 0H11.0833C12.6941 0 13.9999 1.30583 13.9999 2.91665V8.74995C13.9999 10.031 13.174 11.1192 12.0256 11.511V11.9359C12.0256 12.3275 11.8889 12.826 11.5689 13.238C11.2317 13.6722 10.6961 14 9.96147 14H3.23074C1.42781 14 0 12.5721 0 10.7693V4.03852C0 3.39868 0.230097 2.8651 0.636625 2.49605C1.0341 2.13522 1.55252 1.97443 2.06408 1.97443H2.48886ZM2.33332 3.14109H2.06408C1.78899 3.14109 1.56704 3.2271 1.4208 3.35986C1.28361 3.4844 1.16666 3.69119 1.16666 4.03852V10.7693C1.16666 11.9278 2.07217 12.8333 3.23074 12.8333H9.96147C10.3104 12.8333 10.5152 12.6927 10.6475 12.5224C10.7969 12.33 10.8589 12.088 10.8589 11.9359V11.6666H5.24997C3.63915 11.6666 2.33332 10.3608 2.33332 8.74995V3.14109ZM5.24997 1.16666C4.28348 1.16666 3.49998 1.95016 3.49998 2.91665V8.74995C3.49998 9.71644 4.28347 10.4999 5.24997 10.4999H11.0833C12.0498 10.4999 12.8333 9.71644 12.8333 8.74995V2.91665C12.8333 1.95016 12.0498 1.16666 11.0833 1.16666H5.24997Z" fill="#2DF2FF"/>
</svg>
