<svg width="22" height="22" viewBox="0 0 22 22" fill="none" xmlns="http://www.w3.org/2000/svg">
<path d="M11 22C17.0751 22 22 17.0751 22 11C22 4.92488 17.0751 0 11 0C4.92488 0 0 4.92488 0 11C0 17.0751 4.92488 22 11 22Z" fill="url(#paint0_linear)"/>
<path d="M4.18124 10.4655C5.40887 9.8123 6.77924 9.26714 8.05965 8.71919C10.2624 7.8217 12.474 6.93976 14.7079 6.11868C15.1425 5.97878 15.9234 5.84196 16 6.46413C15.9581 7.3448 15.7856 8.22031 15.6673 9.09583C15.367 11.0212 15.0199 12.9399 14.6814 14.8589C14.5648 15.4981 13.7359 15.829 13.2054 15.42C11.9307 14.5882 10.6462 13.7646 9.38775 12.9136C8.97552 12.509 9.35778 11.928 9.72595 11.639C10.7758 10.6396 11.8893 9.79044 12.8843 8.73935C13.1527 8.11325 12.3597 8.64091 12.0981 8.80258C10.6608 9.75934 9.25863 10.7745 7.74325 11.6154C6.96919 12.027 6.06701 11.6752 5.29331 11.4455C4.59958 11.1681 3.58302 10.8886 4.18117 10.4655L4.18124 10.4655Z" fill="white"/>
<defs>
<linearGradient id="paint0_linear" x1="8.25128" y1="0.9174" x2="2.75128" y2="13.75" gradientUnits="userSpaceOnUse">
<stop stop-color="#37AEE2"/>
<stop offset="1" stop-color="#1E96C8"/>
</linearGradient>
</defs>
</svg>
