<svg width="66" height="66" viewBox="0 0 66 66" fill="none" xmlns="http://www.w3.org/2000/svg">
<g filter="url(#filter0_d)">
<circle cx="33" cy="32" r="29" fill="url(#paint0_linear)"/>
</g>
<path d="M46.0862 26.96C44.2325 21.6976 39.2457 18.1719 33.6715 18.1719C33.6584 18.1719 33.6584 18.1719 33.6454 18.1719C28.8805 18.1719 24.4812 20.7574 22.1575 24.9229C19.9121 28.9579 19.9513 33.8678 22.2358 37.8505L20.121 43.6222C19.9905 43.9748 20.0818 44.3796 20.3429 44.6538C20.5257 44.8366 20.7737 44.9411 21.0348 44.9411C21.1523 44.9411 21.2567 44.928 21.3742 44.8758L27.1443 42.7604C31.8177 45.4243 37.6922 44.9803 41.9088 41.5852C46.2559 38.0986 47.9399 32.2094 46.0862 26.96Z" fill="white"/>
<defs>
<filter id="filter0_d" x="0" y="0" width="66" height="66" filterUnits="userSpaceOnUse" color-interpolation-filters="sRGB">
<feFlood flood-opacity="0" result="BackgroundImageFix"/>
<feColorMatrix in="SourceAlpha" type="matrix" values="0 0 0 0 0 0 0 0 0 0 0 0 0 0 0 0 0 0 127 0"/>
<feOffset dy="1"/>
<feGaussianBlur stdDeviation="2"/>
<feColorMatrix type="matrix" values="0 0 0 0 0 0 0 0 0 0 0 0 0 0 0 0 0 0 0.15 0"/>
<feBlend mode="normal" in2="BackgroundImageFix" result="effect1_dropShadow"/>
<feBlend mode="normal" in="SourceGraphic" in2="effect1_dropShadow" result="shape"/>
</filter>
<linearGradient id="paint0_linear" x1="33" y1="3" x2="33" y2="61" gradientUnits="userSpaceOnUse">
<stop stop-color="#2DF2FF"/>
<stop offset="1" stop-color="#007C84"/>
</linearGradient>
</defs>
</svg>
