<svg width="20" height="20" viewBox="0 0 20 20" fill="none" xmlns="http://www.w3.org/2000/svg">
<path d="M5.59281 16.8296L5.8936 17.0081C7.1583 17.7586 8.60803 18.1557 10.0861 18.1563H10.0895C14.6296 18.1563 18.3248 14.461 18.3266 9.91901C18.3275 7.71798 17.4715 5.64845 15.9163 4.09144C14.3611 2.53443 12.2929 1.67654 10.0927 1.67578C5.5491 1.67578 1.85385 5.37069 1.85205 9.91233C1.85141 11.4688 2.28691 12.9846 3.11147 14.2961L3.30732 14.6077L2.47518 17.6474L5.59281 16.8296Z" fill="#25D366"/>
<path fill-rule="evenodd" clip-rule="evenodd" d="M10.0895 19.8281H10.0854C8.42675 19.8276 6.79695 19.4114 5.34942 18.6218L0.0957031 20L1.50169 14.8645C0.634407 13.3615 0.17805 11.6566 0.178793 9.90989C0.180967 4.44562 4.62683 0 10.0894 0C12.7406 0.00114422 15.2289 1.03324 17.1 2.90654C18.9711 4.77974 20.001 7.26968 20 9.91771C19.9978 15.3807 15.5537 19.8259 10.0895 19.8281ZM5.59288 16.8298L5.89367 17.0083C7.15837 17.7588 8.6081 18.1559 10.0862 18.1565H10.0895C14.6297 18.1565 18.3249 14.4612 18.3267 9.91919C18.3275 7.71817 17.4715 5.64864 15.9163 4.09163C14.3611 2.53462 12.293 1.67673 10.0928 1.67597C5.54917 1.67597 1.85392 5.37088 1.85212 9.91252C1.85148 11.469 2.28698 12.9848 3.11154 14.2962L3.30739 14.6079L2.47525 17.6476L5.59288 16.8298ZM14.7432 12.0507C14.9159 12.1342 15.0325 12.1905 15.0823 12.2737C15.1442 12.3769 15.1442 12.8727 14.938 13.4512C14.7315 14.0297 13.7422 14.5576 13.2664 14.6287C12.8398 14.6925 12.2999 14.7191 11.7068 14.5305C11.3471 14.4164 10.8859 14.2641 10.2951 14.0089C7.97358 13.0065 6.40473 10.7565 6.10822 10.3312C6.08745 10.3014 6.07292 10.2806 6.06482 10.2698L6.06282 10.2671C5.93177 10.0923 5.05368 8.92067 5.05368 7.70813C5.05368 6.56749 5.61399 5.96961 5.8719 5.69441C5.88957 5.67556 5.90582 5.65822 5.92037 5.64232C6.14735 5.3944 6.41564 5.33243 6.58071 5.33243C6.74578 5.33243 6.91104 5.33395 7.05532 5.3412C7.07312 5.34209 7.09164 5.34198 7.11079 5.34187C7.25509 5.34103 7.435 5.33997 7.61248 5.76628C7.68075 5.93034 7.78066 6.17356 7.88603 6.43009C8.09911 6.94885 8.33454 7.52202 8.37596 7.60496C8.43789 7.72892 8.47914 7.87348 8.39661 8.03882C8.38422 8.06361 8.37276 8.08701 8.36181 8.10936C8.29981 8.23593 8.25421 8.32903 8.14899 8.45188C8.10761 8.5002 8.06484 8.55228 8.02208 8.60435C7.93689 8.7081 7.85171 8.81184 7.77753 8.88574C7.65356 9.00922 7.52451 9.14319 7.66896 9.39111C7.81341 9.63902 8.31039 10.4499 9.04655 11.1065C9.83789 11.8124 10.5257 12.1107 10.8743 12.2619C10.9424 12.2915 10.9975 12.3154 11.038 12.3356C11.2855 12.4596 11.43 12.4389 11.5744 12.2737C11.7189 12.1084 12.1934 11.5506 12.3585 11.3027C12.5236 11.0549 12.6887 11.0961 12.9156 11.1787C13.1427 11.2615 14.3601 11.8605 14.6078 11.9844C14.6561 12.0086 14.7013 12.0304 14.7432 12.0507Z" fill="#F2F2F2"/>
</svg>
