<?xml version="1.0"?>
<svg xmlns="http://www.w3.org/2000/svg" xmlns:xlink="http://www.w3.org/1999/xlink" xmlns:svgjs="http://svgjs.com/svgjs" version="1.1" width="512" height="512" x="0" y="0" viewBox="0 0 512.001 512.001" style="enable-background:new 0 0 512 512" xml:space="preserve"><g>
<g xmlns="http://www.w3.org/2000/svg">
	<g>
		<path d="M115.627,228.578c-30.685,0-55.649,24.964-55.649,55.649s24.964,55.649,55.649,55.649    c30.685,0,55.649-24.964,55.649-55.649S146.312,228.578,115.627,228.578z M115.627,309.906c-14.159,0-25.679-11.519-25.679-25.679    c0-14.16,11.52-25.679,25.679-25.679c14.16,0,25.679,11.519,25.679,25.679C141.306,298.387,129.787,309.906,115.627,309.906z" fill="#495e86" data-original="#000000" style=""/>
	</g>
</g>
<g xmlns="http://www.w3.org/2000/svg">
	<g>
		<rect x="267.004" y="268.292" width="29.97" height="29.97" fill="#495e86" data-original="#000000" style=""/>
	</g>
</g>
<g xmlns="http://www.w3.org/2000/svg">
	<g>
		<rect x="326.944" y="268.292" width="29.97" height="29.97" fill="#495e86" data-original="#000000" style=""/>
	</g>
</g>
<g xmlns="http://www.w3.org/2000/svg">
	<g>
		<rect x="267.004" y="328.242" width="29.97" height="29.97" fill="#495e86" data-original="#000000" style=""/>
	</g>
</g>
<g xmlns="http://www.w3.org/2000/svg">
	<g>
		<rect x="326.944" y="328.242" width="29.97" height="29.97" fill="#495e86" data-original="#000000" style=""/>
	</g>
</g>
<g xmlns="http://www.w3.org/2000/svg">
	<g>
		<polygon points="356.92,69.861 356.92,104.829 326.946,104.829 326.946,69.861 296.976,69.861 296.976,169.767 326.946,169.767     326.946,134.799 356.92,134.799 356.92,169.767 386.89,169.767 386.89,69.861   " fill="#495e86" data-original="#000000" style=""/>
	</g>
</g>
<g xmlns="http://www.w3.org/2000/svg">
	<g>
		<rect x="267.004" y="209.73" width="29.97" height="29.97" fill="#495e86" data-original="#000000" style=""/>
	</g>
</g>
<g xmlns="http://www.w3.org/2000/svg">
	<g>
		<rect x="326.944" y="209.73" width="29.97" height="29.97" fill="#495e86" data-original="#000000" style=""/>
	</g>
</g>
<g xmlns="http://www.w3.org/2000/svg">
	<g>
		<rect x="386.894" y="268.292" width="29.97" height="29.97" fill="#495e86" data-original="#000000" style=""/>
	</g>
</g>
<g xmlns="http://www.w3.org/2000/svg">
	<g>
		<rect x="386.894" y="328.242" width="29.97" height="29.97" fill="#495e86" data-original="#000000" style=""/>
	</g>
</g>
<g xmlns="http://www.w3.org/2000/svg">
	<g>
		<rect x="386.894" y="209.73" width="29.97" height="29.97" fill="#495e86" data-original="#000000" style=""/>
	</g>
</g>
<g xmlns="http://www.w3.org/2000/svg">
	<g>
		<path d="M450.824,30.023V0H231.032v30.176H170.09v153.479c-16.203-8.809-34.759-13.817-54.464-13.817    c-63.075,0-114.391,51.316-114.391,114.391c0,25.77,16.905,67.833,51.682,128.591c24.853,43.42,62.708,99.181,62.708,99.181    s32.71-48.182,54.464-85.01v55.359h340.674V30.226L450.824,30.023z M152.415,397.771c-13.596,23.764-27.31,45.618-36.788,60.314    c-9.479-14.695-23.192-36.549-36.788-60.314c-41.444-72.434-47.632-102.23-47.632-113.543c0-46.549,37.871-84.421,84.421-84.421    s84.421,37.871,84.421,84.421C200.047,295.542,193.86,325.338,152.415,397.771z M480.795,452.379h-0.001H356.918v-61.943h-29.97    v61.943H200.06v-79.647c20.106-39.69,29.957-68.844,29.957-88.503c0-29.674-11.361-56.744-29.957-77.094V60.146h60.942V29.97    h159.852v29.921l59.94,0.204V452.379z" fill="#495e86" data-original="#000000" style=""/>
	</g>
</g>
<g xmlns="http://www.w3.org/2000/svg">
</g>
<g xmlns="http://www.w3.org/2000/svg">
</g>
<g xmlns="http://www.w3.org/2000/svg">
</g>
<g xmlns="http://www.w3.org/2000/svg">
</g>
<g xmlns="http://www.w3.org/2000/svg">
</g>
<g xmlns="http://www.w3.org/2000/svg">
</g>
<g xmlns="http://www.w3.org/2000/svg">
</g>
<g xmlns="http://www.w3.org/2000/svg">
</g>
<g xmlns="http://www.w3.org/2000/svg">
</g>
<g xmlns="http://www.w3.org/2000/svg">
</g>
<g xmlns="http://www.w3.org/2000/svg">
</g>
<g xmlns="http://www.w3.org/2000/svg">
</g>
<g xmlns="http://www.w3.org/2000/svg">
</g>
<g xmlns="http://www.w3.org/2000/svg">
</g>
<g xmlns="http://www.w3.org/2000/svg">
</g>
</g></svg>
