<svg width="347" height="459" xmlns="http://www.w3.org/2000/svg">
 <defs>
  <linearGradient y2="0.49964" x2="1.00391" y1="0.49964" x1="0" id="paint0_linear">
   <stop stop-opacity="0.6" stop-color="#B26CAA"/>
   <stop stop-opacity="0.1" stop-color="#CB89BB" offset="1"/>
  </linearGradient>
  <linearGradient y2="0.68612" x2="0.18369" y1="0.31824" x1="0.82078" id="paint1_linear">
   <stop stop-color="#A86BA7" offset="0.00124"/>
   <stop stop-color="#814B95" offset="1"/>
  </linearGradient>
  <linearGradient y2="0.50044" x2="1.00086" y1="0.50044" x1="0" id="paint2_linear">
   <stop stop-opacity="0.6" stop-color="#1CA638"/>
   <stop stop-opacity="0.1" stop-color="#7DBB46" offset="1"/>
  </linearGradient>
  <linearGradient y2="0.68401" x2="0.18258" y1="0.31695" x1="0.81835" id="paint3_linear">
   <stop stop-color="#9EC766"/>
   <stop stop-color="#66B22E" offset="1"/>
  </linearGradient>
  <linearGradient y2="0.50031" x2="1.00072" y1="0.50031" x1="0" id="paint4_linear">
   <stop stop-opacity="0.6" stop-color="#66BEEC"/>
   <stop stop-opacity="0.1" stop-color="#73CAEB" offset="1"/>
  </linearGradient>
  <linearGradient y2="0.68311" x2="0.18379" y1="0.31756" x1="0.81698" id="paint5_linear">
   <stop stop-color="#71ABDD"/>
   <stop stop-color="#4777BB" offset="1"/>
  </linearGradient>
  <linearGradient y2="0.49964" x2="0.99931" y1="0.49964" x1="0" id="paint6_linear">
   <stop stop-opacity="0.6" stop-color="#1CA638"/>
   <stop stop-opacity="0.1" stop-color="#7DBB46" offset="1"/>
  </linearGradient>
  <linearGradient y2="0.68282" x2="0.18227" y1="0.31639" x1="0.81698" id="paint7_linear">
   <stop stop-color="#9EC766"/>
   <stop stop-color="#66B22E" offset="1"/>
  </linearGradient>
  <linearGradient y2="0.50031" x2="1.00065" y1="0.50031" x1="0" id="paint8_linear">
   <stop stop-opacity="0.6" stop-color="#66BEEC"/>
   <stop stop-opacity="0.1" stop-color="#73CAEB" offset="1"/>
  </linearGradient>
  <linearGradient y2="0.68197" x2="0.18262" y1="0.31642" x1="0.81578" id="paint9_linear">
   <stop stop-color="#BACFED"/>
   <stop stop-color="#4BB7E5" offset="1"/>
  </linearGradient>
  <linearGradient y2="0.49964" x2="1.00398" y1="0.49964" x1="0" id="paint10_linear">
   <stop stop-opacity="0.6" stop-color="#B26CAA"/>
   <stop stop-opacity="0.1" stop-color="#CB89BB" offset="1"/>
  </linearGradient>
  <linearGradient y2="0.68612" x2="0.1836" y1="0.31824" x1="0.82079" id="paint11_linear">
   <stop stop-color="#A86BA7" offset="0.00124"/>
   <stop stop-color="#814B95" offset="1"/>
  </linearGradient>
 </defs>
 <g>
  <title>background</title>
  <rect fill="none" id="canvas_background" height="461" width="349" y="-1" x="-1"/>
 </g>
 <g>
  <title>Layer 1</title>
  <path id="svg_1" fill="url(#paint0_linear)" d="m1883.44,455.175c-17.2,0 -31.44,-14.237 -31.44,-31.736c0,-17.202 14.24,-31.439 31.44,-31.439c17.5,0 31.44,14.237 31.44,31.439c0.29,17.499 -13.94,31.736 -31.44,31.736zm0,-59.912c-15.72,0 -28.18,12.753 -28.18,28.176c0,15.72 12.76,28.177 28.18,28.177c15.72,0 28.18,-12.754 28.18,-28.177c0.29,-15.423 -12.46,-28.176 -28.18,-28.176z"/>
  <path id="svg_2" fill="url(#paint1_linear)" d="m1883.44,452.506c16.05,0 29.07,-13.014 29.07,-29.067c0,-16.053 -13.02,-29.066 -29.07,-29.066c-16.05,0 -29.07,13.013 -29.07,29.066c0,16.053 13.02,29.067 29.07,29.067z"/>
  <path id="svg_3" fill="white" d="m1883.44,412.168c5.93,0.296 10.68,5.635 10.68,11.27c0,0.594 0.29,1.483 -0.6,1.483c-0.89,0 -0.59,-0.889 -0.59,-1.483c-0.89,-5.932 -3.56,-8.898 -9.49,-9.787c-0.59,0 -1.19,0 -1.19,-0.593c0,-1.187 0.89,-0.89 1.19,-0.89z"/>
  <path id="svg_4" fill="white" d="m1891.15,422.251c0,0.297 0.3,1.187 -0.59,1.187c-0.89,0 -0.6,-0.593 -0.89,-1.187c-0.6,-3.559 -1.78,-5.042 -5.64,-5.932c-0.59,0 -1.48,0 -1.18,-0.889c0,-0.89 0.89,-0.593 1.48,-0.593c3.85,0.593 6.82,3.855 6.82,7.414z"/>
  <path id="svg_5" fill="white" d="m1888.48,421.658c0,0.594 0,0.89 -0.59,0.89c-0.3,0 -0.6,-0.296 -0.6,-0.593c-0.29,-1.483 -0.88,-2.373 -2.37,-2.669c-0.59,0 -0.89,-0.297 -0.59,-0.89c0,-0.297 0.59,-0.593 0.89,-0.593c1.19,0 3.26,2.076 3.26,3.855z"/>
  <path id="svg_6" fill="white" d="m1889.67,436.785c-0.3,0 -0.89,-0.296 -1.19,-0.296c-8.3,-3.559 -14.24,-9.491 -17.5,-17.796c-1.18,-2.669 0,-5.042 2.97,-6.228c0.59,-0.297 0.89,-0.297 1.48,0c1.19,0.593 4.45,4.745 4.45,5.932c0,0.889 -0.59,1.483 -1.19,2.076c-1.18,0.889 -1.18,1.779 -0.59,3.262c1.19,2.67 3.26,4.449 5.93,5.932c0.89,0.297 1.78,0.297 2.67,-0.593c1.19,-1.78 2.67,-1.78 4.15,-0.593c0.89,0.593 1.49,1.186 2.38,1.779c0.89,0.89 2.37,1.483 1.78,3.263c-1.49,1.483 -3.56,3.262 -5.34,3.262z"/>
  <path id="svg_7" fill="url(#paint2_linear)" d="m1592.31,418.61c-25.46,0 -46.31,-20.855 -46.31,-46.305c0,-25.45 20.85,-46.305 46.31,-46.305c25.45,0 46.3,20.855 46.3,46.305c0,25.45 -20.85,46.305 -46.3,46.305zm0,-87.661c-22.98,0 -41.36,18.38 -41.36,41.356c0,22.976 18.73,41.71 41.71,41.71c22.97,0 41.71,-18.734 41.71,-41.71c-0.35,-22.976 -19.09,-41.356 -42.06,-41.356z"/>
  <path id="svg_8" fill="url(#paint3_linear)" d="m1592.31,415.076c23.62,0 42.77,-19.149 42.77,-42.77c0,-23.622 -19.15,-42.771 -42.77,-42.771c-23.63,0 -42.78,19.149 -42.78,42.771c0,23.621 19.15,42.77 42.78,42.77z"/>
  <path id="svg_9" fill="white" d="m1609.98,365.943c0,0.707 -0.71,1.414 -1.41,1.414l-3.89,0l0,2.121l3.89,0c0.7,0 1.41,0.707 1.41,1.414c0,0.707 -0.71,1.414 -1.41,1.414l-3.89,0l0,2.121l3.89,0c0.7,0 1.41,0.707 1.41,1.414c0,0.707 -0.71,1.414 -1.41,1.414l-5.31,0c-0.7,0 -1.41,-0.707 -1.41,-1.414l0,-10.251c0,-0.707 0.71,-1.414 1.41,-1.414l5.31,0c1.06,0.354 1.41,1.06 1.41,1.767zm-9.9,10.251c0,0.354 0,0.707 -0.35,1.061l-0.36,0.353c-0.35,0 -0.35,0 -0.7,0c-0.36,0 -0.36,0 -0.36,0c-0.35,0 -0.35,-0.353 -0.7,-0.353l-4.95,-6.716l0,6.009c0,0.707 -0.71,1.414 -1.42,1.414c-0.7,0 -1.41,-0.707 -1.41,-1.414l0,-10.251c0,-0.707 0.71,-1.414 1.41,-1.414c0.36,0 1.07,0.353 1.07,0.707l4.94,6.716l0,-6.009c0,-0.707 0.71,-1.414 1.42,-1.414c0.7,0 1.41,0.707 1.41,1.414l0,9.897zm-12.37,0c0,0.707 -0.71,1.414 -1.41,1.414c-0.71,0 -1.42,-0.707 -1.42,-1.414l0,-10.251c0,-0.707 0.71,-1.413 1.42,-1.413c0.7,0 1.41,0.706 1.41,1.413l0,10.251zm-3.89,0c0,0.707 -0.71,1.414 -1.41,1.414l-5.3,0c-0.71,0 -1.42,-0.707 -1.42,-1.414l0,-10.251c0,-0.707 0.71,-1.413 1.42,-1.413c0.7,0 1.41,0.706 1.41,1.413l0,8.837l3.89,0c0.7,0 1.41,0.354 1.41,1.414zm8.49,-26.51c-14.5,0 -26.52,9.543 -26.52,21.208c0,10.604 9.55,19.088 21.92,20.855c0.35,0 0.71,0 0.71,0c4.24,0.707 0.7,6.009 2.12,7.423c1.77,1.414 13.78,-6.716 20.85,-13.432c1.06,-1.06 2.12,-1.767 2.83,-2.828c0.35,-0.353 0.35,-0.353 0.35,-0.707c2.48,-3.181 3.89,-7.069 3.89,-11.311c0.36,-11.665 -11.66,-21.208 -26.15,-21.208z"/>
  <path id="svg_10" fill="url(#paint4_linear)" d="m1709.57,111.132c-30.65,0 -55.57,-24.9203 -55.57,-55.5658c0,-30.6456 24.92,-55.5662 55.57,-55.5662c30.64,0 55.56,24.9206 55.56,55.5662c0,30.6455 -24.92,55.5658 -55.56,55.5658zm0,-105.407c-27.28,0 -49.85,22.5632 -49.85,49.8412c0,27.6147 22.23,49.8408 49.85,49.8408c27.61,0 49.84,-22.2261 49.84,-49.8408c0,-27.278 -22.23,-49.8412 -49.84,-49.8412z"/>
  <path id="svg_11" fill="url(#paint5_linear)" d="m1709.57,107.091c28.45,0 51.52,-23.0685 51.52,-51.525c0,-28.4565 -23.07,-51.52498 -51.52,-51.52498c-28.46,0 -51.53,23.06848 -51.53,51.52498c0,28.4565 23.07,51.525 51.53,51.525z"/>
  <path id="svg_12" fill="white" d="m1712.26,62.6391l-7.07,-7.4089l-13.81,7.4089l14.48,-15.4912l7.07,7.072l13.81,-7.4088l-14.48,15.828zm-2.69,-34.35c-14.82,0 -26.95,11.45 -26.95,25.5941c0,7.7456 3.71,14.8176 9.77,19.5323l0,9.4294l9.09,-4.7147c2.7,0.6736 5.39,1.0103 8.09,1.0103c14.81,0 26.94,-11.45 26.94,-25.5941c0,-13.8073 -12.13,-25.2573 -26.94,-25.2573z"/>
  <path id="svg_13" fill="url(#paint6_linear)" d="m263.598,136.197c-32.321,0 -58.598,-26.277 -58.598,-58.5983c0,-32.3213 26.277,-58.5987 58.598,-58.5987c32.32,0 58.597,26.2774 58.597,58.5987c0,32.3213 -26.277,58.5983 -58.597,58.5983zm0,-111.1532c-28.905,0 -52.554,23.6497 -52.554,52.5549c0,28.9053 23.649,52.5553 52.554,52.5553c28.904,0 52.554,-23.65 52.554,-52.5553c0,-28.9052 -23.65,-52.5549 -52.554,-52.5549z"/>
  <path id="svg_14" fill="url(#paint7_linear)" d="m263.598,131.73c29.895,0 54.13,-24.236 54.13,-54.1317c0,-29.896 -24.235,-54.1315 -54.13,-54.1315c-29.896,0 -54.131,24.2355 -54.131,54.1315c0,29.8957 24.235,54.1317 54.131,54.1317z"/>
  <path id="svg_15" fill="white" d="m263.861,48.168c-15.766,0 -28.642,12.8759 -28.642,28.6424c0,7.8832 4.204,14.7153 4.204,14.7153l-4.992,15.2413l15.766,-4.993c0,0 5.781,3.416 13.664,3.416c15.767,0 28.643,-12.8759 28.643,-28.6424c0,-15.5037 -12.876,-28.3796 -28.643,-28.3796zm0,52.555c-7.357,0 -13.138,-3.9418 -13.138,-3.9418l-8.935,2.8906l2.891,-8.6716c0,0 -4.73,-6.5694 -4.73,-14.1898c0,-13.1387 10.774,-23.9125 23.912,-23.9125c13.139,0 23.913,10.7738 23.913,23.9125c0.263,13.1387 -10.511,23.9126 -23.913,23.9126z"/>
  <path id="svg_16" fill="white" d="m253.088,64.4591c0,0 0.788,-0.5255 1.051,-0.5255c0.525,0 2.365,0 2.365,0c0,0 0.525,0 0.788,0.7883c0.263,0.5256 2.102,4.9927 2.365,5.5183c0.263,0.2628 0.526,1.3139 0,1.8394c-0.525,0.7883 -1.839,2.1022 -1.839,2.1022c0,0 -0.526,0.5255 0,1.0511c0.525,0.7883 1.839,2.8905 3.941,4.7299c1.84,1.8394 4.467,3.1533 5.519,3.4161c1.313,0.2628 1.576,0 1.839,-0.7883c0.526,-0.5256 1.839,-2.365 1.839,-2.365c0,0 0.526,-0.7883 1.577,-0.2628c1.051,0.5256 5.518,2.6278 5.518,2.6278c0,0 0.526,0 0.526,0.7883c0,0.5255 0.525,2.6277 -1.314,4.4672c-1.577,1.8394 -5.255,2.6277 -7.095,2.1022c-1.577,-0.5256 -7.358,-1.8395 -11.036,-5.5183c-3.679,-3.4161 -6.57,-7.0949 -7.884,-9.7227c-1.314,-2.6277 -1.051,-4.2044 -1.051,-4.9927c0.263,-0.5255 0.526,-3.9416 2.891,-5.2555z"/>
  <path id="svg_17" fill="url(#paint8_linear)" d="m159.938,410.876c-26.99,0 -48.938,-21.948 -48.938,-48.938c0,-26.99 21.948,-48.938 48.938,-48.938c26.99,0 48.938,21.948 48.938,48.938c0,26.99 -21.948,48.938 -48.938,48.938zm0,-92.834c-24.024,0 -43.896,19.872 -43.896,43.896c0,24.321 19.575,43.896 43.896,43.896c24.321,0 43.896,-19.575 43.896,-43.896c0,-24.024 -19.575,-43.896 -43.896,-43.896z"/>
  <path id="svg_18" fill="url(#paint9_linear)" d="m159.884,405.634c24.132,0 43.694,-19.563 43.694,-43.695c0,-24.132 -19.562,-43.695 -43.694,-43.695c-24.132,0 -43.695,19.563 -43.695,43.695c0,24.132 19.563,43.695 43.695,43.695z"/>
  <path id="svg_19" fill="white" d="m179.018,343.661l-7.14,36.269c0,0 -1.142,2.571 -3.713,1.428l-16.564,-12.851l-5.997,-2.856l-10.281,-3.427c0,0 -1.428,-0.571 -1.714,-1.713c-0.285,-1.143 1.714,-2 1.714,-2l40.553,-15.992c0,0 3.142,-1.428 3.142,1.142z"/>
  <path id="svg_20" fill="#D4E6F2" d="m150.174,379.361c0,0 -0.571,0 -1.142,-1.999c-0.571,-2 -3.713,-11.995 -3.713,-11.995l24.275,-15.422c0,0 1.428,-0.857 1.428,0c0,0 0.286,0.286 -0.571,0.857c-0.857,0.571 -19.135,17.135 -19.135,17.135"/>
  <path id="svg_21" fill="#B6D0E5" d="m157.884,373.363l-6.568,5.997c0,0 -0.571,0.286 -1.143,0.286l1.143,-11.138"/>
  <path transform="translate(30,8) " id="svg_22" fill="url(#paint10_linear)" d="m23.4391,187.175c-17.20254,0 -31.4391,-14.237 -31.4391,-31.736c0,-17.202 14.23656,-31.439 31.4391,-31.439c17.4991,0 31.439,14.237 31.439,31.439c0.2966,17.499 -13.9399,31.736 -31.439,31.736zm0,-59.912c-15.71956,0 -28.17655,12.753 -28.17655,28.176c0,15.72 12.75358,28.177 28.17655,28.177c15.7195,0 28.1765,-12.754 28.1765,-28.177c0.2966,-15.423 -12.457,-28.176 -28.1765,-28.176z"/>
  <path transform="translate(30,8) " id="svg_23" fill="url(#paint11_linear)" d="m23.4391,184.506c16.0529,0 29.0663,-13.014 29.0663,-29.067c0,-16.053 -13.0134,-29.066 -29.0663,-29.066c-16.05287,0 -29.0663,13.013 -29.0663,29.066c0,16.053 13.01343,29.067 29.0663,29.067z"/>
  <path transform="translate(30,8) " id="svg_24" fill="white" d="m23.4391,144.168c5.9319,0.296 10.6774,5.635 10.6774,11.27c0,0.594 0.2966,1.483 -0.5931,1.483c-0.8898,0 -0.5932,-0.889 -0.5932,-1.483c-0.8898,-5.932 -3.5592,-8.898 -9.4911,-9.787c-0.5932,0 -1.1864,0 -1.1864,-0.593c0,-1.187 0.8898,-0.89 1.1864,-0.89z"/>
  <path transform="translate(30,8) " id="svg_25" fill="white" d="m31.1506,154.251c0,0.297 0.2966,1.187 -0.5932,1.187c-0.8898,0 -0.5932,-0.593 -0.8898,-1.187c-0.5932,-3.559 -1.7796,-5.042 -5.6353,-5.932c-0.5932,0 -1.483,0 -1.1864,-0.889c0,-0.89 0.8898,-0.593 1.483,-0.593c3.8557,0.593 6.8217,3.855 6.8217,7.414z"/>
  <path transform="translate(30,8) " id="svg_26" fill="white" d="m28.4812,153.658c0,0.594 0,0.89 -0.5932,0.89c-0.2966,0 -0.5932,-0.296 -0.5932,-0.593c-0.2966,-1.483 -0.8898,-2.373 -2.3727,-2.669c-0.5932,0 -0.8898,-0.297 -0.5932,-0.89c0,-0.297 0.5932,-0.593 0.8898,-0.593c1.1863,0 3.2625,2.076 3.2625,3.855z"/>
  <path transform="translate(30,8) " id="svg_27" fill="white" d="m29.6676,168.785c-0.2966,0 -0.8897,-0.296 -1.1863,-0.296c-8.3047,-3.559 -14.2366,-9.491 -17.4991,-17.796c-1.18643,-2.669 0,-5.042 2.9659,-6.228c0.5932,-0.297 0.8898,-0.297 1.483,0c1.1864,0.593 4.4489,4.745 4.4489,5.932c0,0.889 -0.5932,1.483 -1.1864,2.076c-1.1864,0.889 -1.1864,1.779 -0.5932,3.262c1.1864,2.67 3.2626,4.449 5.9319,5.932c0.8898,0.297 1.7796,0.297 2.6694,-0.593c1.1864,-1.78 2.6693,-1.78 4.1523,-0.593c0.8898,0.593 1.483,1.186 2.3728,1.779c0.8898,0.89 2.3727,1.483 1.7795,3.263c-1.4829,1.483 -3.5591,3.262 -5.3387,3.262z"/>
 </g>
</svg>