<svg viewBox="0 0 400 300" version="1.1"
     xmlns="http://www.w3.org/2000/svg" standalone="yes">
    <style type="text/css">
    #rocket {
        transform-origin: 60% 100%;
        animation: battleFormationRepeat 10s 0s infinite;
    }
    #rocketLifter rect {
        transform-origin: 100% 50%;
        animation: moveUpDown 10s 0s infinite;
        fill:#007b03;
    }
    #rocketTruckBody #mainBody {
        fill:#007e03;
    }
    #rocketTruckBody #mainAss {
        fill: #004b02;
    }
    #rocketTruckBody #mainControl {
        fill: #004b02;
    }
    .window {
        fill: #000;
    }
    #rocket rect {
        fill: #006302;
    }
    #rocket .panel {
        fill:#004e02;
    }
    #rocket .redStripe {
        fill:#ff0000;
    }
    #star rect {
        transform:rotate(0deg) translate(150px,10px);
        stroke-width: 1;
        stroke: #ffff00;
        fill: none;
    }
    #star rect + rect {
        transform:rotate(45deg) translate(200px,-145px);
    }
    .weel circle {
        fill: #010101;
    }
    .weel circle+circle {
        fill: #494949;
    }
    @keyframes battleFormationRepeat {
        0% {
            transform: rotate(0deg);
        }
        50% {
            transform: rotate(13deg);
        }
        100% {
            transform: rotate(0deg);
        }
    }
    @keyframes moveUpDown {
        0% {
            transform:rotate(0deg);
        }
        50% {
            transform:rotate(10deg);
        }
        100% {
            transform:rotate(0deg);
        }
    }
    </style>
    <g id="rocketLifter">
        <rect width="20" height="70" x="100" y="135"/>
    </g>
    <g id="rocket">
        <rect width="100" height="50" x="200" y="115" />
        <rect width="100" height="50" x="110" y="115"/>
        <rect width="140" height="50" x="40" rx="50" y="115"/>
        <rect width="10" height="50" class="redStripe" x="230" y="115"/>
        <rect width="20" height="20" class="panel" x="90" y="115"/>
        <g id="star">
            <rect width="25" height="25" y="115"/>
            <rect width="25" height="25" y="115"/>
        </g>
    </g>
    <g id="rocketTruckBody">
        <rect width="190" height="40" x="70" y="150" rx="5" id="mainBody"/> 
        <rect width="100" height="60" x="230" y="135" rx="20" id="mainAss"/>
        <rect width="55" height="25" x="60" y="145" rx="5" id="mainControl"/>
        <rect width="20" height="20" x="60" y="145" rx="2" class="window"/>
    </g>
    <g class="weel">
        <circle cx="290" cy="190" r="20"/>
        <circle cx="290" cy="190" r="5"/>
    </g>
    <g class="weel">
        <circle cx="110" cy="190" r="20"/>
        <circle cx="110" cy="190" r="5"/>
    </g>
    <g class="weel">
        <circle cx="155" cy="190" r="20"/>
        <circle cx="155" cy="190" r="5"/>
    </g>
    <g class="weel">
        <circle cx="200" cy="190" r="20"/>
        <circle cx="200" cy="190" r="5"/>
    </g>
    <g class="weel">
        <circle cx="245" cy="190" r="20"/>
        <circle cx="245" cy="190" r="5"/>
    </g>
</svg>