<svg width="423" height="459" xmlns="http://www.w3.org/2000/svg">
 <defs>
  <linearGradient y2="0.49964" x2="1.00391" y1="0.49964" x1="0" id="paint0_linear">
   <stop stop-opacity="0.6" stop-color="#B26CAA"/>
   <stop stop-opacity="0.1" stop-color="#CB89BB" offset="1"/>
  </linearGradient>
  <linearGradient y2="0.68612" x2="0.18369" y1="0.31824" x1="0.82078" id="paint1_linear">
   <stop stop-color="#A86BA7" offset="0.00124"/>
   <stop stop-color="#814B95" offset="1"/>
  </linearGradient>
  <linearGradient y2="0.50044" x2="1.00086" y1="0.50044" x1="0" id="paint2_linear">
   <stop stop-opacity="0.6" stop-color="#1CA638"/>
   <stop stop-opacity="0.1" stop-color="#7DBB46" offset="1"/>
  </linearGradient>
  <linearGradient y2="0.68401" x2="0.18258" y1="0.31695" x1="0.81835" id="paint3_linear">
   <stop stop-color="#9EC766"/>
   <stop stop-color="#66B22E" offset="1"/>
  </linearGradient>
  <linearGradient y2="0.50031" x2="1.00072" y1="0.50031" x1="0" id="paint4_linear">
   <stop stop-opacity="0.6" stop-color="#66BEEC"/>
   <stop stop-opacity="0.1" stop-color="#73CAEB" offset="1"/>
  </linearGradient>
  <linearGradient y2="0.68311" x2="0.18379" y1="0.31756" x1="0.81698" id="paint5_linear">
   <stop stop-color="#71ABDD"/>
   <stop stop-color="#4777BB" offset="1"/>
  </linearGradient>
 </defs>
 <g>
  <title>background</title>
  <rect fill="none" id="canvas_background" height="461" width="425" y="-1" x="-1"/>
 </g>
 <g>
  <title>Layer 1</title>
  <path id="svg_1" fill="url(#paint0_linear)" d="m374.44,457.175c-17.2,0 -31.44,-14.237 -31.44,-31.736c0,-17.202 14.24,-31.439 31.44,-31.439c17.5,0 31.44,14.237 31.44,31.439c0.29,17.499 -13.94,31.736 -31.44,31.736zm0,-59.912c-15.72,0 -28.18,12.753 -28.18,28.176c0,15.72 12.76,28.177 28.18,28.177c15.72,0 28.18,-12.754 28.18,-28.177c0.29,-15.423 -12.46,-28.176 -28.18,-28.176z"/>
  <path id="svg_2" fill="url(#paint1_linear)" d="m374.44,454.506c16.05,0 29.07,-13.014 29.07,-29.067c0,-16.053 -13.02,-29.066 -29.07,-29.066c-16.05,0 -29.07,13.013 -29.07,29.066c0,16.053 13.02,29.067 29.07,29.067z"/>
  <path id="svg_3" fill="white" d="m374.44,414.168c5.93,0.296 10.68,5.635 10.68,11.27c0,0.594 0.29,1.483 -0.6,1.483c-0.89,0 -0.59,-0.889 -0.59,-1.483c-0.89,-5.932 -3.56,-8.898 -9.49,-9.787c-0.59,0 -1.19,0 -1.19,-0.593c0,-1.187 0.89,-0.89 1.19,-0.89z"/>
  <path id="svg_4" fill="white" d="m382.15,424.251c0,0.297 0.3,1.187 -0.59,1.187c-0.89,0 -0.6,-0.593 -0.89,-1.187c-0.6,-3.559 -1.78,-5.042 -5.64,-5.932c-0.59,0 -1.48,0 -1.18,-0.889c0,-0.89 0.89,-0.593 1.48,-0.593c3.85,0.593 6.82,3.855 6.82,7.414z"/>
  <path id="svg_5" fill="white" d="m379.48,423.658c0,0.594 0,0.89 -0.59,0.89c-0.3,0 -0.6,-0.296 -0.6,-0.593c-0.29,-1.483 -0.88,-2.373 -2.37,-2.669c-0.59,0 -0.89,-0.297 -0.59,-0.89c0,-0.297 0.59,-0.593 0.89,-0.593c1.19,0 3.26,2.076 3.26,3.855z"/>
  <path id="svg_6" fill="white" d="m380.67,438.785c-0.3,0 -0.89,-0.296 -1.19,-0.296c-8.3,-3.559 -14.24,-9.491 -17.5,-17.796c-1.18,-2.669 0,-5.042 2.97,-6.228c0.59,-0.297 0.89,-0.297 1.48,0c1.19,0.593 4.45,4.745 4.45,5.932c0,0.889 -0.59,1.483 -1.19,2.076c-1.18,0.889 -1.18,1.779 -0.59,3.262c1.19,2.67 3.26,4.449 5.93,5.932c0.89,0.297 1.78,0.297 2.67,-0.593c1.19,-1.78 2.67,-1.78 4.15,-0.593c0.89,0.593 1.49,1.186 2.38,1.779c0.89,0.89 2.37,1.483 1.78,3.263c-1.49,1.483 -3.56,3.262 -5.34,3.262z"/>
  <path id="svg_7" fill="url(#paint2_linear)" d="m83.31,420.61c-25.46,0 -46.31,-20.855 -46.31,-46.305c0,-25.45 20.85,-46.305 46.31,-46.305c25.45,0 46.3,20.855 46.3,46.305c0,25.45 -20.85,46.305 -46.3,46.305zm0,-87.661c-22.98,0 -41.36,18.38 -41.36,41.356c0,22.976 18.73,41.71 41.71,41.71c22.97,0 41.71,-18.734 41.71,-41.71c-0.35,-22.976 -19.09,-41.356 -42.06,-41.356z"/>
  <path id="svg_8" fill="url(#paint3_linear)" d="m83.31,417.076c23.62,0 42.77,-19.149 42.77,-42.77c0,-23.622 -19.15,-42.771 -42.77,-42.771c-23.63,0 -42.78,19.149 -42.78,42.771c0,23.621 19.15,42.77 42.78,42.77z"/>
  <path id="svg_9" fill="white" d="m100.98,367.943c0,0.707 -0.71,1.414 -1.41,1.414l-3.89,0l0,2.121l3.89,0c0.7,0 1.41,0.707 1.41,1.414c0,0.707 -0.71,1.414 -1.41,1.414l-3.89,0l0,2.121l3.89,0c0.7,0 1.41,0.707 1.41,1.414c0,0.707 -0.71,1.414 -1.41,1.414l-5.31,0c-0.7,0 -1.41,-0.707 -1.41,-1.414l0,-10.251c0,-0.707 0.71,-1.414 1.41,-1.414l5.31,0c1.06,0.354 1.41,1.06 1.41,1.767zm-9.9,10.251c0,0.354 0,0.707 -0.35,1.061l-0.36,0.353c-0.35,0 -0.35,0 -0.7,0c-0.36,0 -0.36,0 -0.36,0c-0.35,0 -0.35,-0.353 -0.7,-0.353l-4.95,-6.716l0,6.009c0,0.707 -0.71,1.414 -1.42,1.414c-0.7,0 -1.41,-0.707 -1.41,-1.414l0,-10.251c0,-0.707 0.71,-1.414 1.41,-1.414c0.36,0 1.07,0.353 1.07,0.707l4.94,6.716l0,-6.009c0,-0.707 0.71,-1.414 1.42,-1.414c0.7,0 1.41,0.707 1.41,1.414l0,9.897zm-12.37,0c0,0.707 -0.71,1.414 -1.41,1.414c-0.71,0 -1.42,-0.707 -1.42,-1.414l0,-10.251c0,-0.707 0.71,-1.413 1.42,-1.413c0.7,0 1.41,0.706 1.41,1.413l0,10.251zm-3.89,0c0,0.707 -0.71,1.414 -1.41,1.414l-5.3,0c-0.71,0 -1.42,-0.707 -1.42,-1.414l0,-10.251c0,-0.707 0.71,-1.413 1.42,-1.413c0.7,0 1.41,0.706 1.41,1.413l0,8.837l3.89,0c0.7,0 1.41,0.354 1.41,1.414zm8.49,-26.51c-14.5,0 -26.52,9.543 -26.52,21.208c0,10.604 9.55,19.088 21.92,20.855c0.35,0 0.71,0 0.71,0c4.24,0.707 0.7,6.009 2.12,7.423c1.77,1.414 13.78,-6.716 20.85,-13.432c1.06,-1.06 2.12,-1.767 2.83,-2.828c0.35,-0.353 0.35,-0.353 0.35,-0.707c2.48,-3.181 3.89,-7.069 3.89,-11.311c0.36,-11.665 -11.66,-21.208 -26.15,-21.208z"/>
  <path id="svg_10" fill="url(#paint4_linear)" d="m200.57,113.132c-30.65,0 -55.57,-24.9203 -55.57,-55.5658c0,-30.6456 24.92,-55.5662 55.57,-55.5662c30.64,0 55.56,24.9206 55.56,55.5662c0,30.6455 -24.92,55.5658 -55.56,55.5658zm0,-105.407c-27.28,0 -49.85,22.5632 -49.85,49.8412c0,27.6147 22.23,49.8408 49.85,49.8408c27.61,0 49.84,-22.2261 49.84,-49.8408c0,-27.278 -22.23,-49.8412 -49.84,-49.8412z"/>
  <path id="svg_11" fill="url(#paint5_linear)" d="m200.57,109.091c28.45,0 51.52,-23.0685 51.52,-51.525c0,-28.4565 -23.07,-51.52498 -51.52,-51.52498c-28.46,0 -51.53,23.06848 -51.53,51.52498c0,28.4565 23.07,51.525 51.53,51.525z"/>
  <path id="svg_12" fill="white" d="m203.26,64.6391l-7.07,-7.4089l-13.81,7.4089l14.48,-15.4912l7.07,7.072l13.81,-7.4088l-14.48,15.828zm-2.69,-34.35c-14.82,0 -26.95,11.45 -26.95,25.5941c0,7.7456 3.71,14.8176 9.77,19.5323l0,9.4294l9.09,-4.7147c2.7,0.6736 5.39,1.0103 8.09,1.0103c14.81,0 26.94,-11.45 26.94,-25.5941c0,-13.8073 -12.13,-25.2573 -26.94,-25.2573z"/>
  <path transform="translate(30,8) " id="svg_24" fill="white" d="m23.4391,144.168c5.9319,0.296 10.6774,5.635 10.6774,11.27c0,0.594 0.2966,1.483 -0.5931,1.483c-0.8898,0 -0.5932,-0.889 -0.5932,-1.483c-0.8898,-5.932 -3.5592,-8.898 -9.4911,-9.787c-0.5932,0 -1.1864,0 -1.1864,-0.593c0,-1.187 0.8898,-0.89 1.1864,-0.89z"/>
  <path transform="translate(30,8) " id="svg_25" fill="white" d="m31.1506,154.251c0,0.297 0.2966,1.187 -0.5932,1.187c-0.8898,0 -0.5932,-0.593 -0.8898,-1.187c-0.5932,-3.559 -1.7796,-5.042 -5.6353,-5.932c-0.5932,0 -1.483,0 -1.1864,-0.889c0,-0.89 0.8898,-0.593 1.483,-0.593c3.8557,0.593 6.8217,3.855 6.8217,7.414z"/>
  <path transform="translate(30,8) " id="svg_26" fill="white" d="m28.4812,153.658c0,0.594 0,0.89 -0.5932,0.89c-0.2966,0 -0.5932,-0.296 -0.5932,-0.593c-0.2966,-1.483 -0.8898,-2.373 -2.3727,-2.669c-0.5932,0 -0.8898,-0.297 -0.5932,-0.89c0,-0.297 0.5932,-0.593 0.8898,-0.593c1.1863,0 3.2625,2.076 3.2625,3.855z"/>
  <path transform="translate(30,8) " id="svg_27" fill="white" d="m29.6676,168.785c-0.2966,0 -0.8897,-0.296 -1.1863,-0.296c-8.3047,-3.559 -14.2366,-9.491 -17.4991,-17.796c-1.18643,-2.669 0,-5.042 2.9659,-6.228c0.5932,-0.297 0.8898,-0.297 1.483,0c1.1864,0.593 4.4489,4.745 4.4489,5.932c0,0.889 -0.5932,1.483 -1.1864,2.076c-1.1864,0.889 -1.1864,1.779 -0.5932,3.262c1.1864,2.67 3.2626,4.449 5.9319,5.932c0.8898,0.297 1.7796,0.297 2.6694,-0.593c1.1864,-1.78 2.6693,-1.78 4.1523,-0.593c0.8898,0.593 1.483,1.186 2.3728,1.779c0.8898,0.89 2.3727,1.483 1.7795,3.263c-1.4829,1.483 -3.5591,3.262 -5.3387,3.262z"/>
 </g>
</svg>