<svg width="1920" height="459" viewBox="0 0 1920 459" fill="none" xmlns="http://www.w3.org/2000/svg">
<path d="M1897.44 458.175C1880.24 458.175 1866 443.938 1866 426.439C1866 409.237 1880.24 395 1897.44 395C1914.94 395 1928.88 409.237 1928.88 426.439C1929.17 443.938 1914.94 458.175 1897.44 458.175ZM1897.44 398.263C1881.72 398.263 1869.26 411.016 1869.26 426.439C1869.26 442.159 1882.02 454.616 1897.44 454.616C1913.16 454.616 1925.62 441.862 1925.62 426.439C1925.91 411.016 1913.16 398.263 1897.44 398.263Z" fill="url(#paint0_linear)"/>
<path d="M1897.44 455.506C1913.49 455.506 1926.51 442.492 1926.51 426.439C1926.51 410.386 1913.49 397.373 1897.44 397.373C1881.39 397.373 1868.37 410.386 1868.37 426.439C1868.37 442.492 1881.39 455.506 1897.44 455.506Z" fill="url(#paint1_linear)"/>
<path d="M1897.44 415.168C1903.37 415.464 1908.12 420.803 1908.12 426.438C1908.12 427.032 1908.41 427.921 1907.52 427.921C1906.63 427.921 1906.93 427.032 1906.93 426.438C1906.04 420.506 1903.37 417.54 1897.44 416.651C1896.85 416.651 1896.25 416.651 1896.25 416.058C1896.25 414.871 1897.14 415.168 1897.44 415.168Z" fill="white"/>
<path d="M1905.15 425.251C1905.15 425.548 1905.45 426.438 1904.56 426.438C1903.67 426.438 1903.96 425.845 1903.67 425.251C1903.07 421.692 1901.89 420.209 1898.03 419.319C1897.44 419.319 1896.55 419.319 1896.85 418.43C1896.85 417.54 1897.74 417.837 1898.33 417.837C1902.18 418.43 1905.15 421.692 1905.15 425.251Z" fill="white"/>
<path d="M1902.48 424.658C1902.48 425.252 1902.48 425.548 1901.89 425.548C1901.59 425.548 1901.29 425.252 1901.29 424.955C1901 423.472 1900.41 422.582 1898.92 422.286C1898.33 422.286 1898.03 421.989 1898.33 421.396C1898.33 421.099 1898.92 420.803 1899.22 420.803C1900.41 420.803 1902.48 422.879 1902.48 424.658Z" fill="white"/>
<path d="M1903.67 439.785C1903.37 439.785 1902.78 439.489 1902.48 439.489C1894.18 435.93 1888.24 429.998 1884.98 421.693C1883.8 419.024 1884.98 416.651 1887.95 415.465C1888.54 415.168 1888.84 415.168 1889.43 415.465C1890.62 416.058 1893.88 420.21 1893.88 421.397C1893.88 422.286 1893.29 422.88 1892.69 423.473C1891.51 424.362 1891.51 425.252 1892.1 426.735C1893.29 429.405 1895.36 431.184 1898.03 432.667C1898.92 432.964 1899.81 432.964 1900.7 432.074C1901.89 430.294 1903.37 430.294 1904.85 431.481C1905.74 432.074 1906.34 432.667 1907.23 433.26C1908.12 434.15 1909.6 434.743 1909.01 436.523C1907.52 438.006 1905.45 439.785 1903.67 439.785Z" fill="white"/>
<path d="M1592.31 418.61C1566.85 418.61 1546 397.755 1546 372.305C1546 346.855 1566.85 326 1592.31 326C1617.76 326 1638.61 346.855 1638.61 372.305C1638.61 397.755 1617.76 418.61 1592.31 418.61ZM1592.31 330.949C1569.33 330.949 1550.95 349.329 1550.95 372.305C1550.95 395.281 1569.68 414.015 1592.66 414.015C1615.63 414.015 1634.37 395.281 1634.37 372.305C1634.02 349.329 1615.28 330.949 1592.31 330.949Z" fill="url(#paint2_linear)"/>
<path d="M1592.31 415.076C1615.93 415.076 1635.08 395.927 1635.08 372.306C1635.08 348.684 1615.93 329.535 1592.31 329.535C1568.68 329.535 1549.53 348.684 1549.53 372.306C1549.53 395.927 1568.68 415.076 1592.31 415.076Z" fill="url(#paint3_linear)"/>
<path d="M1609.98 365.943C1609.98 366.65 1609.27 367.357 1608.57 367.357H1604.68V369.478H1608.57C1609.27 369.478 1609.98 370.185 1609.98 370.892C1609.98 371.599 1609.27 372.306 1608.57 372.306H1604.68V374.427H1608.57C1609.27 374.427 1609.98 375.134 1609.98 375.841C1609.98 376.548 1609.27 377.255 1608.57 377.255H1603.26C1602.56 377.255 1601.85 376.548 1601.85 375.841V365.59C1601.85 364.883 1602.56 364.176 1603.26 364.176H1608.57C1609.63 364.53 1609.98 365.236 1609.98 365.943ZM1600.08 376.194C1600.08 376.548 1600.08 376.901 1599.73 377.255L1599.37 377.608C1599.02 377.608 1599.02 377.608 1598.67 377.608C1598.31 377.608 1598.31 377.608 1598.31 377.608C1597.96 377.608 1597.96 377.255 1597.61 377.255L1592.66 370.539V376.548C1592.66 377.255 1591.95 377.962 1591.24 377.962C1590.54 377.962 1589.83 377.255 1589.83 376.548V366.297C1589.83 365.59 1590.54 364.883 1591.24 364.883C1591.6 364.883 1592.31 365.236 1592.31 365.59L1597.25 372.306V366.297C1597.25 365.59 1597.96 364.883 1598.67 364.883C1599.37 364.883 1600.08 365.59 1600.08 366.297V376.194ZM1587.71 376.194C1587.71 376.901 1587 377.608 1586.3 377.608C1585.59 377.608 1584.88 376.901 1584.88 376.194V365.943C1584.88 365.236 1585.59 364.53 1586.3 364.53C1587 364.53 1587.71 365.236 1587.71 365.943V376.194ZM1583.82 376.194C1583.82 376.901 1583.11 377.608 1582.41 377.608H1577.11C1576.4 377.608 1575.69 376.901 1575.69 376.194V365.943C1575.69 365.236 1576.4 364.53 1577.11 364.53C1577.81 364.53 1578.52 365.236 1578.52 365.943V374.78H1582.41C1583.11 374.78 1583.82 375.134 1583.82 376.194ZM1592.31 349.684C1577.81 349.684 1565.79 359.227 1565.79 370.892C1565.79 381.496 1575.34 389.98 1587.71 391.747C1588.06 391.747 1588.42 391.747 1588.42 391.747C1592.66 392.454 1589.12 397.756 1590.54 399.17C1592.31 400.584 1604.32 392.454 1611.39 385.738C1612.45 384.678 1613.51 383.971 1614.22 382.91C1614.57 382.557 1614.57 382.557 1614.57 382.203C1617.05 379.022 1618.46 375.134 1618.46 370.892C1618.82 359.227 1606.8 349.684 1592.31 349.684Z" fill="white"/>
<path d="M1709.57 111.132C1678.92 111.132 1654 86.2117 1654 55.5662C1654 24.9206 1678.92 0 1709.57 0C1740.21 0 1765.13 24.9206 1765.13 55.5662C1765.13 86.2117 1740.21 111.132 1709.57 111.132ZM1709.57 5.725C1682.29 5.725 1659.72 28.2882 1659.72 55.5662C1659.72 83.1809 1681.95 105.407 1709.57 105.407C1737.18 105.407 1759.41 83.1809 1759.41 55.5662C1759.41 28.2882 1737.18 5.725 1709.57 5.725Z" fill="url(#paint4_linear)"/>
<path d="M1709.57 107.091C1738.02 107.091 1761.09 84.0225 1761.09 55.566C1761.09 27.1095 1738.02 4.04102 1709.57 4.04102C1681.11 4.04102 1658.04 27.1095 1658.04 55.566C1658.04 84.0225 1681.11 107.091 1709.57 107.091Z" fill="url(#paint5_linear)"/>
<path d="M1712.26 62.6391L1705.19 55.2302L1691.38 62.6391L1705.86 47.1479L1712.93 54.2199L1726.74 46.8111L1712.26 62.6391ZM1709.57 28.2891C1694.75 28.2891 1682.62 39.7391 1682.62 53.8832C1682.62 61.6288 1686.33 68.7008 1692.39 73.4155V82.8449L1701.48 78.1302C1704.18 78.8038 1706.87 79.1405 1709.57 79.1405C1724.38 79.1405 1736.51 67.6905 1736.51 53.5464C1736.51 39.7391 1724.38 28.2891 1709.57 28.2891Z" fill="white"/>
<path d="M263.598 136.197C231.277 136.197 205 109.92 205 77.5987C205 45.2774 231.277 19 263.598 19C295.918 19 322.195 45.2774 322.195 77.5987C322.195 109.92 295.918 136.197 263.598 136.197ZM263.598 25.0438C234.693 25.0438 211.044 48.6935 211.044 77.5987C211.044 106.504 234.693 130.154 263.598 130.154C292.502 130.154 316.152 106.504 316.152 77.5987C316.152 48.6935 292.502 25.0438 263.598 25.0438Z" fill="url(#paint6_linear)"/>
<path d="M263.598 131.73C293.493 131.73 317.728 107.494 317.728 77.5983C317.728 47.7023 293.493 23.4668 263.598 23.4668C233.702 23.4668 209.467 47.7023 209.467 77.5983C209.467 107.494 233.702 131.73 263.598 131.73Z" fill="url(#paint7_linear)"/>
<path d="M263.861 48.168C248.095 48.168 235.219 61.0439 235.219 76.8104C235.219 84.6936 239.423 91.5257 239.423 91.5257L234.431 106.767L250.197 101.774C250.197 101.774 255.978 105.19 263.861 105.19C279.628 105.19 292.504 92.3141 292.504 76.5476C292.504 61.0439 279.628 48.168 263.861 48.168ZM263.861 100.723C256.504 100.723 250.723 96.7812 250.723 96.7812L241.788 99.6718L244.679 91.0002C244.679 91.0002 239.949 84.4308 239.949 76.8104C239.949 63.6717 250.723 52.8979 263.861 52.8979C277 52.8979 287.774 63.6717 287.774 76.8104C288.037 89.9491 277.263 100.723 263.861 100.723Z" fill="white"/>
<path d="M253.088 64.4591C253.088 64.4591 253.876 63.9336 254.139 63.9336C254.664 63.9336 256.504 63.9336 256.504 63.9336C256.504 63.9336 257.029 63.9336 257.292 64.7219C257.555 65.2475 259.394 69.7146 259.657 70.2402C259.92 70.503 260.183 71.5541 259.657 72.0796C259.132 72.8679 257.818 74.1818 257.818 74.1818C257.818 74.1818 257.292 74.7073 257.818 75.2329C258.343 76.0212 259.657 78.1234 261.759 79.9628C263.599 81.8022 266.226 83.1161 267.278 83.3789C268.591 83.6417 268.854 83.3789 269.117 82.5906C269.643 82.065 270.956 80.2256 270.956 80.2256C270.956 80.2256 271.482 79.4373 272.533 79.9628C273.584 80.4884 278.051 82.5906 278.051 82.5906C278.051 82.5906 278.577 82.5906 278.577 83.3789C278.577 83.9044 279.102 86.0066 277.263 87.8461C275.686 89.6855 272.008 90.4738 270.168 89.9483C268.591 89.4227 262.81 88.1088 259.132 84.43C255.453 81.0139 252.562 77.3351 251.248 74.7073C249.934 72.0796 250.197 70.5029 250.197 69.7146C250.46 69.1891 250.723 65.773 253.088 64.4591Z" fill="white"/>
<path d="M159.938 410.876C132.948 410.876 111 388.928 111 361.938C111 334.948 132.948 313 159.938 313C186.928 313 208.876 334.948 208.876 361.938C208.876 388.928 186.928 410.876 159.938 410.876ZM159.938 318.042C135.914 318.042 116.042 337.914 116.042 361.938C116.042 386.259 135.617 405.834 159.938 405.834C184.259 405.834 203.834 386.259 203.834 361.938C203.834 337.914 184.259 318.042 159.938 318.042Z" fill="url(#paint8_linear)"/>
<path d="M159.884 405.634C184.016 405.634 203.578 386.071 203.578 361.939C203.578 337.807 184.016 318.244 159.884 318.244C135.752 318.244 116.189 337.807 116.189 361.939C116.189 386.071 135.752 405.634 159.884 405.634Z" fill="url(#paint9_linear)"/>
<path d="M179.018 343.661L171.878 379.93C171.878 379.93 170.736 382.501 168.165 381.358L151.601 368.507L145.604 365.651L135.323 362.224C135.323 362.224 133.895 361.653 133.609 360.511C133.324 359.368 135.323 358.511 135.323 358.511L175.876 342.519C175.876 342.519 179.018 341.091 179.018 343.661Z" fill="white"/>
<path d="M150.174 379.361C150.174 379.361 149.603 379.361 149.032 377.362C148.461 375.362 145.319 365.367 145.319 365.367L169.594 349.945C169.594 349.945 171.022 349.088 171.022 349.945C171.022 349.945 171.308 350.231 170.451 350.802C169.594 351.373 151.316 367.937 151.316 367.937" fill="#D4E6F2"/>
<path d="M157.884 373.363L151.316 379.36C151.316 379.36 150.745 379.646 150.173 379.646L151.316 368.508" fill="#B6D0E5"/>
<path d="M23.4391 187.175C6.23656 187.175 -8 172.938 -8 155.439C-8 138.237 6.23656 124 23.4391 124C40.9382 124 54.8781 138.237 54.8781 155.439C55.1747 172.938 40.9382 187.175 23.4391 187.175ZM23.4391 127.263C7.71954 127.263 -4.73745 140.016 -4.73745 155.439C-4.73745 171.159 8.01613 183.616 23.4391 183.616C39.1586 183.616 51.6156 170.862 51.6156 155.439C51.9122 140.016 39.1586 127.263 23.4391 127.263Z" fill="url(#paint10_linear)"/>
<path d="M23.4391 184.506C39.492 184.506 52.5054 171.492 52.5054 155.439C52.5054 139.386 39.492 126.373 23.4391 126.373C7.38623 126.373 -5.6272 139.386 -5.6272 155.439C-5.6272 171.492 7.38623 184.506 23.4391 184.506Z" fill="url(#paint11_linear)"/>
<path d="M23.4391 144.168C29.371 144.464 34.1165 149.803 34.1165 155.438C34.1165 156.032 34.4131 156.921 33.5234 156.921C32.6336 156.921 32.9302 156.032 32.9302 155.438C32.0404 149.506 29.371 146.54 23.4391 145.651C22.8459 145.651 22.2527 145.651 22.2527 145.058C22.2527 143.871 23.1425 144.168 23.4391 144.168Z" fill="white"/>
<path d="M31.1506 154.251C31.1506 154.548 31.4472 155.438 30.5574 155.438C29.6676 155.438 29.9642 154.845 29.6676 154.251C29.0744 150.692 27.888 149.209 24.0323 148.319C23.4391 148.319 22.5493 148.319 22.8459 147.43C22.8459 146.54 23.7357 146.837 24.3289 146.837C28.1846 147.43 31.1506 150.692 31.1506 154.251Z" fill="white"/>
<path d="M28.4812 153.658C28.4812 154.252 28.4812 154.548 27.888 154.548C27.5914 154.548 27.2948 154.252 27.2948 153.955C26.9982 152.472 26.405 151.582 24.9221 151.286C24.3289 151.286 24.0323 150.989 24.3289 150.396C24.3289 150.099 24.9221 149.803 25.2187 149.803C26.405 149.803 28.4812 151.879 28.4812 153.658Z" fill="white"/>
<path d="M29.6676 168.785C29.371 168.785 28.7779 168.489 28.4813 168.489C20.1766 164.93 14.2447 158.998 10.9822 150.693C9.79577 148.024 10.9822 145.651 13.9481 144.465C14.5413 144.168 14.8379 144.168 15.4311 144.465C16.6175 145.058 19.88 149.21 19.88 150.397C19.88 151.286 19.2868 151.88 18.6936 152.473C17.5072 153.362 17.5072 154.252 18.1004 155.735C19.2868 158.405 21.363 160.184 24.0323 161.667C24.9221 161.964 25.8119 161.964 26.7017 161.074C27.8881 159.294 29.371 159.294 30.854 160.481C31.7438 161.074 32.337 161.667 33.2268 162.26C34.1166 163.15 35.5995 163.743 35.0063 165.523C33.5234 167.006 31.4472 168.785 29.6676 168.785Z" fill="white"/>
<defs>
<linearGradient id="paint0_linear" x1="1866" y1="426.565" x2="1929.13" y2="426.565" gradientUnits="userSpaceOnUse">
<stop stop-color="#B26CAA" stop-opacity="0.6"/>
<stop offset="1" stop-color="#CB89BB" stop-opacity="0.1"/>
</linearGradient>
<linearGradient id="paint1_linear" x1="1916.09" y1="415.873" x2="1879.05" y2="437.259" gradientUnits="userSpaceOnUse">
<stop offset="0.00124199" stop-color="#A86BA7"/>
<stop offset="1" stop-color="#814B95"/>
</linearGradient>
<linearGradient id="paint2_linear" x1="1546" y1="372.346" x2="1638.69" y2="372.346" gradientUnits="userSpaceOnUse">
<stop stop-color="#1CA638" stop-opacity="0.6"/>
<stop offset="1" stop-color="#7DBB46" stop-opacity="0.1"/>
</linearGradient>
<linearGradient id="paint3_linear" x1="1619.54" y1="356.647" x2="1565.15" y2="388.046" gradientUnits="userSpaceOnUse">
<stop stop-color="#9EC766"/>
<stop offset="1" stop-color="#66B22E"/>
</linearGradient>
<linearGradient id="paint4_linear" x1="1654" y1="55.6005" x2="1765.21" y2="55.6005" gradientUnits="userSpaceOnUse">
<stop stop-color="#66BEEC" stop-opacity="0.6"/>
<stop offset="1" stop-color="#73CAEB" stop-opacity="0.1"/>
</linearGradient>
<linearGradient id="paint5_linear" x1="1742.23" y1="36.7654" x2="1676.98" y2="74.4356" gradientUnits="userSpaceOnUse">
<stop stop-color="#71ABDD"/>
<stop offset="1" stop-color="#4777BB"/>
</linearGradient>
<linearGradient id="paint6_linear" x1="205" y1="77.5561" x2="322.114" y2="77.5561" gradientUnits="userSpaceOnUse">
<stop stop-color="#1CA638" stop-opacity="0.6"/>
<stop offset="1" stop-color="#7DBB46" stop-opacity="0.1"/>
</linearGradient>
<linearGradient id="paint7_linear" x1="297.914" y1="57.7197" x2="229.2" y2="97.3911" gradientUnits="userSpaceOnUse">
<stop stop-color="#9EC766"/>
<stop offset="1" stop-color="#66B22E"/>
</linearGradient>
<linearGradient id="paint8_linear" x1="111" y1="361.968" x2="208.94" y2="361.968" gradientUnits="userSpaceOnUse">
<stop stop-color="#66BEEC" stop-opacity="0.6"/>
<stop offset="1" stop-color="#73CAEB" stop-opacity="0.1"/>
</linearGradient>
<linearGradient id="paint9_linear" x1="187.479" y1="345.896" x2="132.148" y2="377.841" gradientUnits="userSpaceOnUse">
<stop stop-color="#BACFED"/>
<stop offset="1" stop-color="#4BB7E5"/>
</linearGradient>
<linearGradient id="paint10_linear" x1="-8" y1="155.565" x2="55.1329" y2="155.565" gradientUnits="userSpaceOnUse">
<stop stop-color="#B26CAA" stop-opacity="0.6"/>
<stop offset="1" stop-color="#CB89BB" stop-opacity="0.1"/>
</linearGradient>
<linearGradient id="paint11_linear" x1="42.0872" y1="144.873" x2="5.04577" y2="166.259" gradientUnits="userSpaceOnUse">
<stop offset="0.00124199" stop-color="#A86BA7"/>
<stop offset="1" stop-color="#814B95"/>
</linearGradient>
</defs>
</svg>
