<svg width="20" height="20" viewBox="0 0 20 20" fill="none" xmlns="http://www.w3.org/2000/svg">
<rect width="20" height="20" rx="10" fill="#6e49ff"/>
<path d="M3.92578 8.82031C4.04297 8.70312 4.19922 8.625 4.375 8.625H5V12.375H4.375C4.19922 12.375 4.04297 12.3164 3.92578 12.1992C3.80859 12.082 3.75 11.9258 3.75 11.75V9.25C3.75 9.09375 3.80859 8.9375 3.92578 8.82031ZM12.8125 6.125C13.6719 6.125 14.375 6.82812 14.375 7.6875V13C14.375 13.7031 13.8086 14.25 13.125 14.25H6.875C6.17188 14.25 5.625 13.7031 5.625 13V7.6875C5.625 6.82812 6.30859 6.125 7.1875 6.125H9.375V4.875C9.375 4.54297 9.64844 4.25 10 4.25C10.332 4.25 10.625 4.54297 10.625 4.875V6.125H12.8125ZM8.75 12.375V11.75H7.5V12.375H8.75ZM8.125 10.0312C8.55469 10.0312 8.90625 9.69922 8.90625 9.25C8.90625 8.82031 8.55469 8.46875 8.125 8.46875C7.67578 8.46875 7.34375 8.82031 7.34375 9.25C7.34375 9.69922 7.67578 10.0312 8.125 10.0312ZM10.625 12.375V11.75H9.375V12.375H10.625ZM12.5 12.375V11.75H11.25V12.375H12.5ZM11.875 10.0312C12.3047 10.0312 12.6562 9.69922 12.6562 9.25C12.6562 8.82031 12.3047 8.46875 11.875 8.46875C11.4258 8.46875 11.0938 8.82031 11.0938 9.25C11.0938 9.69922 11.4258 10.0312 11.875 10.0312ZM16.0547 8.82031C16.1719 8.9375 16.25 9.09375 16.25 9.25V11.75C16.25 11.9258 16.1719 12.082 16.0547 12.1992C15.9375 12.3164 15.7812 12.375 15.625 12.375H15V8.625H15.625C15.7812 8.625 15.9375 8.70312 16.0547 8.82031Z" fill="white"/>
</svg>
