<svg width="14" height="11" viewBox="0 0 14 11" fill="none" xmlns="http://www.w3.org/2000/svg">
<path d="M0.925781 4.82031C0.808594 4.9375 0.75 5.09375 0.75 5.25V7.75C0.75 7.92578 0.808594 8.08203 0.925781 8.19922C1.04297 8.31641 1.19922 8.375 1.375 8.375H2V4.625H1.375C1.19922 4.625 1.04297 4.70312 0.925781 4.82031ZM9.8125 2.125H7.625V0.875C7.625 0.542969 7.33203 0.25 7 0.25C6.64844 0.25 6.375 0.542969 6.375 0.875V2.125H4.1875C3.30859 2.125 2.625 2.82812 2.625 3.6875V9C2.625 9.70312 3.17188 10.25 3.875 10.25H10.125C10.8086 10.25 11.375 9.70312 11.375 9V3.6875C11.375 2.82812 10.6719 2.125 9.8125 2.125ZM5.75 8.375H4.5V7.75H5.75V8.375ZM5.125 6.03125C4.67578 6.03125 4.34375 5.69922 4.34375 5.25C4.34375 4.82031 4.67578 4.46875 5.125 4.46875C5.55469 4.46875 5.90625 4.82031 5.90625 5.25C5.90625 5.69922 5.55469 6.03125 5.125 6.03125ZM7.625 8.375H6.375V7.75H7.625V8.375ZM9.5 8.375H8.25V7.75H9.5V8.375ZM8.875 6.03125C8.42578 6.03125 8.09375 5.69922 8.09375 5.25C8.09375 4.82031 8.42578 4.46875 8.875 4.46875C9.30469 4.46875 9.65625 4.82031 9.65625 5.25C9.65625 5.69922 9.30469 6.03125 8.875 6.03125ZM13.0547 4.82031C12.9375 4.70312 12.7812 4.625 12.625 4.625H12V8.375H12.625C12.7812 8.375 12.9375 8.31641 13.0547 8.19922C13.1719 8.08203 13.25 7.92578 13.25 7.75V5.25C13.25 5.09375 13.1719 4.9375 13.0547 4.82031Z" fill="white"/>
</svg>
