<svg width="19" height="16" viewBox="0 0 19 16" fill="none" xmlns="http://www.w3.org/2000/svg">
<path d="M12.3093 8.375V2.75C12.3093 1.72461 11.4597 0.875 10.4343 0.875H1.99683C0.942139 0.875 0.121826 1.72461 0.121826 2.75V8.375C0.121826 9.42969 0.942139 10.25 1.99683 10.25L2.93433 10.2793V11.8613C2.93433 12.0957 3.198 12.2129 3.37378 12.0957L5.80542 10.2793L10.4343 10.25C11.4597 10.25 12.3093 9.42969 12.3093 8.375ZM16.9968 4.625H13.2468V8.375C13.2468 9.92773 11.9578 11.1875 10.4343 11.1875H7.62183V12.125C7.62183 13.1797 8.44214 14 9.46753 14H13.1296L15.5613 15.8164C15.7664 15.9629 16.0593 15.8457 16.0593 15.6113V14H16.9968C18.0222 14 18.8718 13.1797 18.8718 12.1543V6.5C18.8718 5.47461 18.0222 4.625 16.9968 4.625Z" fill="#27262B"/>
</svg>
