<svg width="24" height="25" viewBox="0 0 24 25" fill="none" xmlns="http://www.w3.org/2000/svg">
<g>
<path d="M1.08655 21.5L2.49287 16.3647C1.62488 14.8616 1.16921 13.1568 1.16921 11.4098C1.17123 5.94579 5.61803 1.5 11.083 1.5C13.7354 1.50101 16.2244 2.53332 18.0955 4.4064C19.9675 6.27947 20.9978 8.76952 20.9968 11.4178C20.9948 16.8818 16.547 21.3286 11.083 21.3286H11.079C9.41963 21.3276 7.78951 20.9123 6.34185 20.1219L1.08655 21.5ZM6.58481 18.3285L6.88624 18.5069C8.15142 19.258 9.60109 19.6541 11.08 19.6551H11.083C15.6246 19.6551 19.3213 15.9594 19.3234 11.4178C19.3244 9.21712 18.4675 7.14746 16.9119 5.58992C15.3564 4.03339 13.2878 3.17549 11.086 3.17448C6.54045 3.17448 2.8447 6.86922 2.84268 11.4108C2.84168 12.9673 3.27718 14.4825 4.10283 15.7941L4.29941 16.1056L3.46671 19.145L6.58481 18.3285Z" fill="white"/>
<path d="M1.4314 21.1541L2.78933 16.1962C1.95158 14.7455 1.51104 13.0993 1.51205 11.4127C1.51406 6.13725 5.80763 1.8457 11.0831 1.8457C13.6437 1.84671 16.046 2.84374 17.8526 4.65129C19.6601 6.45985 20.6541 8.86319 20.6531 11.4198C20.6511 16.6952 16.3576 20.9868 11.0831 20.9868H11.0791C9.47717 20.9858 7.9035 20.5845 6.50625 19.8224L1.4314 21.1541Z" fill="url(#paint0_linear_1661_317)"/>
<path d="M1.08655 21.5L2.49287 16.3647C1.62488 14.8616 1.16921 13.1568 1.16921 11.4098C1.17123 5.94579 5.61803 1.5 11.083 1.5C13.7354 1.50101 16.2244 2.53332 18.0955 4.4064C19.9675 6.27947 20.9978 8.76952 20.9968 11.4178C20.9948 16.8818 16.547 21.3286 11.083 21.3286H11.079C9.41963 21.3276 7.78951 20.9123 6.34185 20.1219L1.08655 21.5ZM6.58481 18.3285L6.88624 18.5069C8.15142 19.258 9.60109 19.6541 11.08 19.6551H11.083C15.6246 19.6551 19.3213 15.9594 19.3234 11.4178C19.3244 9.21712 18.4675 7.14746 16.9119 5.58992C15.3564 4.03339 13.2878 3.17549 11.086 3.17448C6.54045 3.17448 2.8447 6.86922 2.84268 11.4108C2.84168 12.9673 3.27718 14.4825 4.10283 15.7941L4.29941 16.1056L3.46671 19.145L6.58481 18.3285Z" fill="url(#paint1_linear_1661_317)"/>
<path fillRule="evenodd" clip-rule="evenodd" d="M8.60611 7.26751C8.42062 6.85519 8.22504 6.84712 8.04862 6.83906C7.90446 6.83301 7.73913 6.83301 7.5738 6.83301C7.40847 6.83301 7.14031 6.89551 6.91349 7.1425C6.68666 7.3905 6.04651 7.98932 6.04651 9.20813C6.04651 10.4269 6.93466 11.6044 7.05765 11.7698C7.18165 11.9351 8.77144 14.5159 11.2887 15.5089C13.3816 16.3345 13.807 16.1702 14.2616 16.1288C14.7163 16.0875 15.7274 15.53 15.9341 14.9514C16.1408 14.3727 16.1408 13.8777 16.0783 13.7739C16.0168 13.6711 15.8514 13.6086 15.6034 13.4846C15.3554 13.3606 14.1376 12.7617 13.9108 12.6791C13.684 12.5964 13.5187 12.5551 13.3533 12.8031C13.188 13.0511 12.7142 13.6086 12.569 13.7739C12.4249 13.9392 12.2797 13.9604 12.0327 13.8364C11.7847 13.7124 10.9873 13.4513 10.0407 12.6065C9.30474 11.9502 8.80673 11.1387 8.66257 10.8907C8.51841 10.6427 8.64744 10.5086 8.77144 10.3856C8.88234 10.2747 9.01944 10.0963 9.14344 9.95212C9.26744 9.80796 9.30877 9.70412 9.39043 9.53879C9.47309 9.37346 9.43176 9.22829 9.37026 9.1053C9.30776 8.98231 8.82588 7.75745 8.60611 7.26751Z" fill="white"/>
</g>
<defs>
<filter id="filter0_d_1661_317" x="0.0865479" y="0.5" width="23.9103" height="24" filterUnits="userSpaceOnUse" colorInterpolationFilters="sRGB">
<feFlood floodOpacity="0" result="BackgroundImageFix"/>
<feColorMatrix in="SourceAlpha" type="matrix" values="0 0 0 0 0 0 0 0 0 0 0 0 0 0 0 0 0 0 127 0" result="hardAlpha"/>
<feOffset dx="1" dy="1"/>
<feGaussianBlur stdDeviation="1"/>
<feComposite in2="hardAlpha" operator="out"/>
<feColorMatrix type="matrix" values="0 0 0 0 0 0 0 0 0 0 0 0 0 0 0 0 0 0 0.1 0"/>
<feBlend mode="normal" in2="BackgroundImageFix" result="effect1_dropShadow_1661_317"/>
<feBlend mode="normal" in="SourceGraphic" in2="effect1_dropShadow_1661_317" result="shape"/>
</filter>
<linearGradient id="paint0_linear_1661_317" x1="11.0418" y1="21.1541" x2="11.0418" y2="1.84622" gradientUnits="userSpaceOnUse">
<stop stopColor="#20B038"/>
<stop offset="1" stopColor="#60D66A"/>
</linearGradient>
<linearGradient id="paint1_linear_1661_317" x1="11.0417" y1="21.5002" x2="11.0417" y2="1.49997" gradientUnits="userSpaceOnUse">
<stop stopColor="#F9F9F9"/>
<stop offset="1" stopColor="white"/>
</linearGradient>
</defs>
</svg>
