<svg width="11" height="12" viewBox="0 0 11 12" fill="none" xmlns="http://www.w3.org/2000/svg">
<path d="M5.07812 11.0859L1.14062 6.96094C0.929688 6.72656 0.929688 6.375 1.16406 6.16406C1.39844 5.95312 1.75 5.95312 1.96094 6.1875L4.9375 9.30469V1.3125C4.9375 1.00781 5.17188 0.75 5.5 0.75C5.80469 0.75 6.0625 1.00781 6.0625 1.3125V9.30469L9.01562 6.1875C9.22656 5.95312 9.60156 5.95312 9.8125 6.16406C10.0469 6.375 10.0469 6.72656 9.83594 6.96094L5.89844 11.0859C5.78125 11.2031 5.64062 11.25 5.5 11.25C5.33594 11.25 5.19531 11.2031 5.07812 11.0859Z" fill="#6D6A78"/>
</svg>
