<svg width="18" height="20" viewBox="0 0 18 20" fill="none" xmlns="http://www.w3.org/2000/svg">
<path d="M6.95001 15.77C6.12001 15.77 5.29001 15.45 4.65001 14.82C3.38001 13.55 3.38001 11.49 4.65001 10.22L9.25001 5.61997C9.54001 5.32997 10.02 5.32997 10.31 5.61997C10.6 5.90997 10.6 6.38997 10.31 6.67997L5.71001 11.28C5.03001 11.96 5.03001 13.07 5.71001 13.76C6.39001 14.44 7.50001 14.44 8.19001 13.76L14.91 7.03997C15.2 6.74997 15.68 6.74997 15.97 7.03997C16.26 7.32997 16.26 7.80997 15.97 8.09997L9.25001 14.82C8.62001 15.46 7.79001 15.77 6.95001 15.77Z" fill="#ADADAD"/>
<path d="M2.36005 10.09C2.17005 10.09 1.98005 10.02 1.83005 9.86999C1.54005 9.57999 1.54005 9.09999 1.83005 8.80999L9.25005 1.38999C9.54005 1.09999 10.02 1.09999 10.31 1.38999C10.6 1.67999 10.6 2.15999 10.31 2.44999L2.89005 9.86999C2.74005 10.02 2.55005 10.09 2.36005 10.09Z" fill="#ADADAD"/>
<path d="M6.25 19.4799C4.65 19.4799 3.05 18.8699 1.83 17.6499C-0.61 15.2099 -0.61 11.2499 1.83 8.80991C2.12 8.51991 2.6 8.51991 2.89 8.80991C3.18 9.09991 3.18 9.57991 2.89 9.86991C1.04 11.7199 1.04 14.7399 2.89 16.5899C4.74 18.4399 7.76 18.4399 9.61 16.5899C9.9 16.2999 10.38 16.2999 10.67 16.5899C10.96 16.8799 10.96 17.3599 10.67 17.6499C9.45 18.8699 7.85 19.4799 6.25 19.4799Z" fill="#ADADAD"/>
<path d="M15.44 8.32994C15.25 8.32994 15.06 8.25994 14.91 8.10994C14.62 7.81994 14.62 7.33994 14.91 7.04994C16.18 5.77994 16.18 3.71994 14.91 2.44994C13.64 1.17994 11.58 1.17994 10.31 2.44994C10.02 2.73994 9.53997 2.73994 9.24997 2.44994C8.95997 2.15994 8.95997 1.67994 9.24997 1.38994C11.1 -0.460059 14.12 -0.460059 15.97 1.38994C17.82 3.23994 17.82 6.25994 15.97 8.10994C15.82 8.24994 15.63 8.32994 15.44 8.32994Z" fill="#ADADAD"/>
<path d="M10.1401 17.8699C9.95008 17.8699 9.76008 17.7999 9.61008 17.6499C9.32008 17.3599 9.32008 16.8799 9.61008 16.5899L14.9101 11.2899C15.2001 10.9999 15.6801 10.9999 15.9701 11.2899C16.2601 11.5799 16.2601 12.0599 15.9701 12.3499L10.6701 17.6499C10.5201 17.7999 10.3301 17.8699 10.1401 17.8699Z" fill="#ADADAD"/>
</svg>
