<svg width="14" height="20" viewBox="0 0 14 20" fill="none" xmlns="http://www.w3.org/2000/svg">
<path d="M6.75011 13.5C8.76011 13.5 10.3901 11.87 10.3901 9.86V3.64C10.3901 1.63 8.76011 0 6.75011 0C4.74011 0 3.11011 1.63 3.11011 3.64V9.86C3.11011 11.87 4.74011 13.5 6.75011 13.5ZM4.61011 3.64C4.61011 2.46 5.57011 1.5 6.75011 1.5C7.93011 1.5 8.89011 2.46 8.89011 3.64V9.86C8.89011 11.04 7.93011 12 6.75011 12C5.57011 12 4.61011 11.04 4.61011 9.86V3.64V3.64Z" fill="#ADADAD"/>
<path d="M13.5 9.75V7.75C13.5 7.34 13.16 7 12.75 7C12.34 7 12 7.34 12 7.75V9.75C12 12.64 9.64 15 6.75 15C3.86 15 1.5 12.64 1.5 9.75V7.75C1.5 7.34 1.16 7 0.75 7C0.34 7 0 7.34 0 7.75V9.75C0 13.22 2.63 16.08 6 16.46V18H2.47C2.06 18 1.72 18.34 1.72 18.75C1.72 19.16 2.06 19.5 2.47 19.5H10.84C11.25 19.5 11.59 19.16 11.59 18.75C11.59 18.34 11.25 18 10.84 18H7.5V16.46C10.87 16.08 13.5 13.22 13.5 9.75Z" fill="#ADADAD"/>
</svg>
