<svg width="15" height="19" viewBox="0 0 15 19" fill="none" xmlns="http://www.w3.org/2000/svg">
<path d="M13.69 3.35L11.15 0.81C10.63 0.29 9.94 0 9.21 0H2.61C1.17 0 0 1.17 0 2.61V15.46C0 16.98 1.23 18.21 2.75 18.21H11.75C13.27 18.21 14.5 16.98 14.5 15.46V5.29C14.5 4.56 14.21 3.87 13.69 3.35ZM12.63 4.41C12.7 4.48 12.74 4.56 12.79 4.64H10.04C9.94 4.64 9.86 4.56 9.86 4.46V1.71C9.94 1.76 10.03 1.8 10.09 1.87L12.63 4.41ZM11.75 16.71H2.75C2.06 16.71 1.5 16.15 1.5 15.46V2.61C1.5 2 2 1.5 2.61 1.5H8.36V4.46C8.36 5.39 9.11 6.14 10.04 6.14H13V15.46C13 16.15 12.44 16.71 11.75 16.71Z" fill="#ADADAD"/>
</svg>
