<svg width="20" height="20" viewBox="0 0 20 20" fill="none" xmlns="http://www.w3.org/2000/svg">
<path d="M10 0C4.48205 0 0 4.48205 0 10C0 15.518 4.48205 20 10 20C15.518 20 20 15.518 20 10C20 4.48205 15.518 0 10 0ZM10 18.4615C5.33333 18.4615 1.53846 14.6667 1.53846 10C1.53846 5.33333 5.33333 1.53846 10 1.53846C14.6667 1.53846 18.4615 5.33333 18.4615 10C18.4615 14.6667 14.6667 18.4615 10 18.4615Z" fill="#ADADAD"/>
<path d="M13.4154 6.66669C12.8513 6.66669 12.3898 7.12823 12.3898 7.69233C12.3898 8.25643 12.8513 8.71797 13.4154 8.71797C13.9795 8.71797 14.4411 8.25643 14.4411 7.69233C14.4411 7.12823 13.9795 6.66669 13.4154 6.66669Z" fill="#ADADAD"/>
<path d="M6.55384 8.71797C7.11794 8.71797 7.57948 8.25643 7.57948 7.69233C7.57948 7.12823 7.11794 6.66669 6.55384 6.66669C5.98974 6.66669 5.5282 7.12823 5.5282 7.70258C5.5282 8.25643 5.98974 8.71797 6.55384 8.71797Z" fill="#ADADAD"/>
<path d="M13.0462 13.2308C12.9949 13.2718 11.8769 14.359 10 14.359C8.1231 14.359 6.9949 13.2821 6.95387 13.241C6.65644 12.9436 6.16413 12.9436 5.86669 13.241C5.56926 13.5385 5.56926 14.0308 5.86669 14.3282C5.92823 14.3898 7.46669 15.8974 10 15.8974C12.5334 15.8974 14.0718 14.3898 14.1334 14.3282C14.4308 14.0308 14.4308 13.5487 14.1334 13.241C13.8359 12.9436 13.3539 12.9436 13.0462 13.2308Z" fill="#ADADAD"/>
</svg>
