<svg width="22" height="20" viewBox="0 0 22 20" fill="none" xmlns="http://www.w3.org/2000/svg">
<path d="M18.74 0H2.75C1.23 0 0 1.23 0 2.75V16.75C0 18.26 1.23 19.5 2.74 19.5H18.73C20.25 19.5 21.48 18.27 21.48 16.75V2.75C21.49 1.23 20.26 0 18.74 0ZM1.5 16.75V2.75C1.5 2.06 2.06 1.5 2.75 1.5H18.74C19.43 1.5 19.99 2.06 19.99 2.75V12.19L16.99 9.79C16.24 9.19 15.14 9.31 14.53 10.06L11.19 14.23C11.13 14.3 11.06 14.32 11.02 14.32C10.98 14.32 10.91 14.32 10.84 14.27L8.97 12.78C8.23 12.19 7.14 12.3 6.53 13.03L2.43 17.95C1.91 17.8 1.5 17.33 1.5 16.75ZM18.74 18H4.35L7.7 13.98C7.79 13.88 7.94 13.86 8.05 13.94L9.92 15.43C10.29 15.72 10.74 15.85 11.21 15.8C11.67 15.75 12.09 15.52 12.38 15.15L15.71 11C15.8 10.89 15.95 10.87 16.06 10.96L19.99 14.11V16.75C19.99 17.44 19.43 18 18.74 18Z" fill="#ADADAD"/>
<path d="M6.75 9.5C8.27 9.5 9.5 8.27 9.5 6.75C9.5 5.23 8.26 4 6.75 4C5.24 4 4 5.23 4 6.75C4 8.27 5.23 9.5 6.75 9.5ZM6.75 5.5C7.44 5.5 8 6.06 8 6.75C8 7.44 7.44 8 6.75 8C6.06 8 5.5 7.44 5.5 6.75C5.5 6.06 6.06 5.5 6.75 5.5Z" fill="#ADADAD"/>
</svg>
