<svg width="16" height="15" viewBox="0 0 16 15" fill="none" xmlns="http://www.w3.org/2000/svg">
<path d="M10.0938 13.9375C8.90625 14.2812 7.65625 13.5625 7.3125 12.375L7.15625 11.75C7.03125 11.3438 6.8125 10.9688 6.53125 10.6562L4.9375 8.90625C4.65625 8.59375 4.6875 8.125 4.96875 7.84375C5.28125 7.5625 5.75 7.59375 6.03125 7.90625L7.65625 9.65625C8.09375 10.125 8.40625 10.7188 8.59375 11.3438L8.75 11.9688C8.875 12.375 9.28125 12.5938 9.6875 12.5C10.0938 12.375 10.3125 11.9688 10.2188 11.5625L10.0312 10.9375C9.84375 10.3125 9.5625 9.71875 9.1875 9.1875C9.03125 8.96875 9.03125 8.65625 9.15625 8.40625C9.28125 8.15625 9.53125 8 9.8125 8H14C14.25 8 14.5 7.78125 14.5 7.5C14.5 7.3125 14.3438 7.125 14.1562 7.03125C13.9375 6.96875 13.75 6.75 13.6875 6.53125C13.625 6.28125 13.6875 6.03125 13.875 5.84375C13.9375 5.75 14 5.65625 14 5.5C14 5.28125 13.8125 5.0625 13.5938 5.03125C13.3125 4.96875 13.0938 4.78125 13.0312 4.5625C12.9375 4.3125 12.9688 4.03125 13.125 3.8125C13.1875 3.75 13.25 3.625 13.25 3.5C13.25 3.3125 13.0938 3.125 12.9062 3.03125C12.5625 2.90625 12.375 2.53125 12.4688 2.15625C12.4688 2.09375 12.5 2.0625 12.5 2C12.5 1.75 12.25 1.5 12 1.5H8.9375C8.53125 1.5 8.15625 1.625 7.84375 1.84375L5.90625 3.125C5.5625 3.375 5.09375 3.28125 4.875 2.90625C4.625 2.5625 4.71875 2.125 5.0625 1.875L7 0.59375C7.5625 0.21875 8.25 0 8.9375 0H12C13.0625 0 13.9375 0.875 14 1.9375C14.4375 2.3125 14.75 2.875 14.75 3.5C14.75 3.65625 14.7188 3.78125 14.6875 3.90625C15.1875 4.28125 15.5 4.84375 15.5 5.5C15.5 5.71875 15.4688 5.90625 15.4062 6.09375C15.75 6.46875 16 6.96875 16 7.5C16 8.625 15.0938 9.5 14 9.5H11.0938C11.25 9.84375 11.375 10.1875 11.4688 10.5312L11.6562 11.1562C12 12.3438 11.3125 13.5938 10.0938 13.9375ZM1 11C0.4375 11 0 10.5625 0 10V3C0 2.46875 0.4375 2 1 2H3C3.53125 2 4 2.46875 4 3V10C4 10.5625 3.53125 11 3 11H1Z" fill="#6D6A78"/>
</svg>
