<svg width="16" height="16" viewBox="0 0 16 16" fill="none" xmlns="http://www.w3.org/2000/svg">
<path d="M10.0938 1.09375C11.3125 1.4375 12 2.6875 11.6562 3.875L11.4688 4.5C11.375 4.84375 11.25 5.1875 11.0938 5.5H14C15.0938 5.5 16 6.40625 16 7.5C16 8.0625 15.75 8.5625 15.4062 8.9375C15.4688 9.125 15.5 9.3125 15.5 9.53125C15.5 10.1562 15.1875 10.75 14.6875 11.125C14.7188 11.25 14.75 11.375 14.75 11.5312C14.75 12.1562 14.4375 12.7188 14 13.0938C13.9375 14.1562 13.0625 15.0312 12 15.0312H8.9375C8.25 15.0312 7.5625 14.8125 7 14.4375L5.0625 13.1562C4.71875 12.9062 4.625 12.4375 4.875 12.0938C5.09375 11.75 5.5625 11.6562 5.90625 11.9062L7.84375 13.1875C8.15625 13.4062 8.53125 13.5 8.9375 13.5H12C12.25 13.5 12.5 13.2812 12.5 13C12.5 12.9688 12.4688 12.9062 12.4688 12.875C12.375 12.5 12.5625 12.125 12.9062 11.9688C13.0938 11.9062 13.25 11.7188 13.25 11.5C13.25 11.4062 13.1875 11.2812 13.125 11.2188C12.9688 11 12.9375 10.7188 13.0312 10.4688C13.0938 10.2188 13.3125 10.0625 13.5938 10C13.8125 9.96875 14 9.75 14 9.5C14 9.375 13.9375 9.28125 13.875 9.1875C13.6875 9 13.625 8.75 13.6875 8.5C13.75 8.25 13.9375 8.0625 14.1562 7.96875C14.3438 7.90625 14.5 7.71875 14.5 7.5C14.5 7.25 14.25 7 14 7H9.8125C9.53125 7 9.28125 6.84375 9.15625 6.59375C9.03125 6.34375 9.03125 6.0625 9.1875 5.84375C9.5625 5.3125 9.84375 4.71875 10.0312 4.09375L10.2188 3.46875C10.3125 3.0625 10.0938 2.65625 9.6875 2.53125C9.28125 2.4375 8.875 2.65625 8.75 3.0625L8.59375 3.6875C8.40625 4.3125 8.09375 4.875 7.65625 5.375L6.03125 7.125C5.75 7.4375 5.28125 7.46875 4.96875 7.1875C4.6875 6.90625 4.65625 6.4375 4.9375 6.125L6.53125 4.375C6.8125 4.0625 7.03125 3.6875 7.15625 3.28125L7.3125 2.65625C7.65625 1.4375 8.90625 0.75 10.0938 1.09375ZM1 6H3C3.53125 6 4 6.46875 4 7V14C4 14.5625 3.53125 15 3 15H1C0.4375 15 0 14.5625 0 14V7C0 6.46875 0.4375 6 1 6Z" fill="#6D6A78"/>
</svg>
