<svg width="20" height="13" viewBox="0 0 20 13" fill="none" xmlns="http://www.w3.org/2000/svg">
<path d="M18.43 1.41C17.77 1.09 17.01 1.18 16.45 1.64L13.87 3.71V3C13.87 1.35 12.52 0 10.87 0H3C1.35 0 0 1.35 0 3V9.75C0 11.4 1.35 12.75 3 12.75H10.88C12.53 12.75 13.88 11.4 13.88 9.75V9.04L16.45 11.11C16.79 11.39 17.2 11.53 17.62 11.53C17.9 11.53 18.17 11.47 18.43 11.34C19.09 11.03 19.5 10.38 19.5 9.65V3.1C19.5 2.37 19.09 1.72 18.43 1.41ZM12.38 9.75C12.38 10.58 11.71 11.25 10.88 11.25H3C2.17 11.25 1.5 10.58 1.5 9.75V3C1.5 2.17 2.17 1.5 3 1.5H10.88C11.71 1.5 12.38 2.17 12.38 3V9.75V9.75ZM18 9.65C18 9.86 17.85 9.96 17.79 9.99C17.73 10.02 17.56 10.08 17.39 9.94L13.87 7.11V5.64L17.39 2.81C17.56 2.68 17.72 2.73 17.79 2.76C17.85 2.79 18 2.89 18 3.1V9.65Z" fill="#ADADAD"/>
</svg>
